<?xml version="1.0" encoding="utf-8"?>
<!-- Generator: Adobe Illustrator 24.1.3, SVG Export Plug-In . SVG Version: 6.00 Build 0)  -->
<svg version="1.1" id="Layer_1" xmlns="http://www.w3.org/2000/svg" xmlns:xlink="http://www.w3.org/1999/xlink" x="0px" y="0px"
	 viewBox="0 0 800 800" style="enable-background:new 0 0 800 800;" xml:space="preserve">
<style type="text/css">
	.st0{fill:#C5C9C9;}
	.st1{fill:#FFFCED;}
	.st2{opacity:0.15;}
	.st3{fill:#F9EFC5;}
	.st4{fill:#9FA5A5;}
	.st5{fill:#FFFFFF;stroke:#000000;stroke-miterlimit:10;}
	.st6{fill:#666666;}
	.st7{fill:url(#SVGID_1_);}
	.st8{fill:none;}
	.st9{font-family:'ArialMT';}
	.st10{font-size:12px;}
	.st11{font-family:'AmericanTypewriter-Condensed';}
	.st12{font-size:72px;}
</style>
<g>
	<path class="st0" d="M660.8,300.5c0,0.1,0,0.2,0,0.4c-0.3,14.5-19.5,27.8-51.5,38.6c-47.5,16-123.6,26.4-209.3,26.4
		c-86.9,0-163.9-10.7-211.3-27c-30.9-10.7-49.2-23.8-49.5-37.9c0-0.1,0-0.3,0-0.4c0-36.1,116.8-65.3,260.8-65.3
		S660.8,264.4,660.8,300.5z"/>
</g>
<path class="st1" d="M609.3,339.5c-47.5,16-123.6,26.4-209.3,26.4c-86.9,0-163.9-10.7-211.3-27c36.9-22.3,116.9-37.7,209.7-37.7
	C492.2,301.2,572.9,316.9,609.3,339.5z"/>
<g class="st2">
	<path class="st3" d="M386,179.4c7.7-19.5,20.2-19.5,27.9,0s29.5,26.5,48.6,15.5l9-5.2c19.1-11,27.2-4.3,18.1,14.9
		s1.4,34.5,23.4,34.1l18.7-0.4c22-0.5,24,7.4,4.4,17.5l-10.3,5.3c-19.6,10.1-19.6,26.5,0,36.6l10.3,5.3
		c19.6,10.1,17.6,17.9-4.4,17.5L513,320c-22-0.5-32.5,14.9-23.4,34.1s1,25.9-18.1,14.9l-9-5.2c-19.1-11-40.9-4-48.6,15.5
		s-20.2,19.5-27.9,0s-29.5-26.5-48.6-15.5l-9,5.2c-19.1,11-27.2,4.3-18.1-14.9S309,319.6,287,320l-18.7,0.4c-22,0.5-24-7.4-4.4-17.5
		l10.3-5.3c19.6-10.1,19.6-26.5,0-36.6l-10.3-5.3c-19.6-10.1-17.6-17.9,4.4-17.5l18.7,0.4c22,0.5,32.5-14.9,23.4-34.1
		s-1-25.9,18.1-14.9l9,5.2C356.5,206,378.4,199,386,179.4z"/>
</g>
<g>
	<path class="st4" d="M660.8,300.9v380.4c0,36.1-116.8,65.3-260.8,65.3s-260.8-29.2-260.8-65.3V300.9l0,0
		c0.3,14.2,18.6,27.3,49.5,37.9c47.4,16.4,124.4,27,211.3,27c85.7,0,161.7-10.4,209.3-26.4C641.4,328.7,660.5,315.4,660.8,300.9
		L660.8,300.9z"/>
</g>
<path class="st5" d="M582.6,475.7V600c-46.7,11-109.5,17.7-178.6,17.7c-69,0-131.8-6.7-178.4-17.7V475.7
	c46.7,11,109.4,17.7,178.4,17.7C473,493.4,535.9,486.7,582.6,475.7z"/>
<path class="st6" d="M403.2,323.7v30.1h-6.4v-30.1c0-1.4,1.4-2.5,3.2-2.5c0.9,0,1.7,0.3,2.2,0.7C402.8,322.4,403.2,323,403.2,323.7z
	"/>
<g>
	
		<radialGradient id="SVGID_1_" cx="399.0575" cy="487.7181" r="26.7853" fx="399.3747" fy="502.348" gradientTransform="matrix(0.9645 -0.2639 -0.2639 -0.9645 142.7642 888.6226)" gradientUnits="userSpaceOnUse">
		<stop  offset="0" style="stop-color:#FFFFFF;stop-opacity:0.8"/>
		<stop  offset="0.1127" style="stop-color:#FFFAF1;stop-opacity:0.8113"/>
		<stop  offset="0.324" style="stop-color:#FEEBCE;stop-opacity:0.8324"/>
		<stop  offset="0.6111" style="stop-color:#FDD494;stop-opacity:0.8611"/>
		<stop  offset="0.9599" style="stop-color:#FBB445;stop-opacity:0.896"/>
		<stop  offset="1" style="stop-color:#FBB03B;stop-opacity:0.9"/>
	</radialGradient>
	<path class="st7" d="M413.7,279.5l1.2,4.7l0.8,3.2l0.4,1.7l2.5,9.8l0.1,0.4l0.4,1.5l1.6,6.3l0.4,1.7c0.4,1.2,0.7,2.5,1,3.8
		c0.1,0.6,0.2,1.3,0.3,1.9c0.5,4.7-0.1,9.2-1.7,13.2c-3.1,8-9.7,13.9-18.1,14.9c-11,1.3-21.1-6.3-24.5-17.7c-0.5-1.6-0.8-3.2-1-4.9
		v-0.2c0-0.1,0-0.2,0-0.3c-0.1-0.6-0.1-1.2-0.1-1.8c-0.1-1.9,0-3.7,0.3-5.4c0.2-1.6,0.6-3.1,1.1-4.5c0.6-1.8,1.4-3.4,2.3-5
		c1.2-2.1,2.7-3.9,4.4-5.5c0.2-0.2,0.4-0.3,0.6-0.5c0.4-0.4,0.9-0.7,1.3-1c1.5-1.1,3.2-2.1,5-2.7l0,0l11-7.2l0,0l7.1-7
		C411.5,277.9,413.4,278.2,413.7,279.5z"/>
</g>
<path id="SVGID_x5F_2_x5F_" class="st8" d="M554.9,561.2v124.3c-46.7,11-109.5,17.7-178.6,17.7c-69,0-131.8-6.7-178.4-17.7V561.3
	c46.7,11,109.4,17.7,178.4,17.7C445.3,578.9,508.2,572.2,554.9,561.2z"/>
<text class="st9 st10"> </text>
<path id="SVGID_x5F_2_x5F__1_" class="st8" d="M574,556.1v124.3c-46.7,11-109.5,17.7-178.6,17.7c-69,0-131.8-6.7-178.4-17.7V556.1
	c46.7,11,109.4,17.7,178.4,17.7S527.3,567.1,574,556.1z"/>
<text class="st9 st10"> </text>
<path id="SVGID_x5F_2_x5F__2_" class="st8" d="M501,558.1v124.3c-46.7,11-109.5,17.7-178.6,17.7c-69,0-131.8-6.7-178.4-17.7V558.1
	c46.7,11,109.4,17.7,178.4,17.7S454.3,569.1,501,558.1z"/>
<text transform="matrix(0.9979 -6.405117e-02 6.405117e-02 0.9979 258.793 589.8622)" class="st9 st10"> </text>
<text transform="matrix(0.9962 -8.747672e-02 8.747672e-02 0.9962 262.1373 589.8643)" class="st11 st12">R</text>
<text transform="matrix(0.9915 -0.13 0.13 0.9915 301.5814 586.3165)" class="st11 st12">e</text>
<text transform="matrix(0.9847 -0.174 0.174 0.9847 331.1433 582.4598)" class="st11 st12">sources</text>
<text class="st9 st10"> </text>
</svg>
