<?xml version="1.0" encoding="iso-8859-1"?>
<!-- Generator: Adobe Illustrator 24.1.3, SVG Export Plug-In . SVG Version: 6.00 Build 0)  -->
<svg version="1.1" id="Layer_1" xmlns="http://www.w3.org/2000/svg" xmlns:xlink="http://www.w3.org/1999/xlink" x="0px" y="0px"
	 viewBox="0 0 800 800" style="enable-background:new 0 0 800 800;" xml:space="preserve">
<linearGradient id="SVGID_1_" gradientUnits="userSpaceOnUse" x1="400" y1="65.0244" x2="400" y2="86.9756">
	<stop  offset="0" style="stop-color:#AEAEAE"/>
	<stop  offset="1" style="stop-color:#525252"/>
</linearGradient>
<rect y="65.024" style="fill:url(#SVGID_1_);" width="800" height="21.951"/>
<path style="fill:#959595;" d="M50.307,378.788c-0.01,0.01-0.01,0.02-0.02,0.03c0,0,0-0.01-0.01-0.01
	C50.287,378.808,50.297,378.798,50.307,378.788z"/>
<path style="fill:#00A99D;" d="M166.847,149.191c-0.01-0.194-0.03-0.376-0.04-0.57c-0.3-4.035-0.67-8.01-1.13-11.925
	c-0.12-1.018-0.24-2.024-0.37-3.03c-0.92-7.235-2.09-14.239-3.5-20.965c-0.35-1.721-0.73-3.442-1.12-5.126
	c-0.04-0.17-0.08-0.351-0.12-0.521c-0.42-1.769-0.85-3.526-1.3-5.259c-1.04-4.048-2.17-7.974-3.39-11.767
	c-7.85-6.677-17.13-11.767-27.33-14.76c-2.31-0.691-4.67-1.26-7.07-1.721h-88.69c-3.98,9.198-7.42,19.547-10.18,30.769
	c-0.22,0.909-0.44,1.818-0.65,2.739c-1.98,8.434-3.58,17.341-4.76,26.612c-0.28,2.157-0.53,4.338-0.74,6.544
	c-1.07,10.107-1.62,20.626-1.62,31.411v547.061c0,16.711,1.33,32.768,3.79,47.698h8.67c0.48-0.279,0.96-0.57,1.43-0.873
	c4.79-3.042,9.21-6.592,13.17-10.604c3.95-6.786,8.24-12.639,12.81-17.426c8.99-9.44,19.06-14.736,29.67-14.736h15.28
	c8.18,0,16.04,3.139,23.34,8.919c3.09,2.436,6.08,5.356,8.95,8.701v0.024c4.31,5.017,8.36,11.016,12.06,17.862
	c0,0.012,0.01,0.012,0.01,0.012c3.62,2.896,7.53,5.453,11.66,7.635c0.27,0.145,0.54,0.279,0.81,0.412
	c0.05,0.024,0.1,0.048,0.15,0.073h7.25c2.45-14.942,3.78-30.999,3.78-47.698V171.622C167.667,164,167.387,156.499,166.847,149.191z
	 M77.907,113.975c-6.49,0-11.76-6.386-11.76-14.263c0-7.865,5.27-14.251,11.76-14.251c6.5,0,11.76,6.386,11.76,14.251
	C89.667,107.589,84.407,113.975,77.907,113.975z"/>
<path style="fill:#00A99D;" d="M363.747,136.818c-0.12-1.054-0.25-2.109-0.38-3.151c-1.17-9.283-2.77-18.19-4.75-26.612
	c-1.36-5.865-2.91-11.5-4.63-16.869c-0.13-0.412-0.27-0.824-0.4-1.236c-0.24-0.242-0.47-0.473-0.71-0.691
	c-0.02-0.024-0.04-0.036-0.06-0.061c-0.83-0.776-1.67-1.527-2.53-2.266c-0.08-0.073-0.16-0.133-0.24-0.206
	c-0.96-0.812-1.95-1.612-2.95-2.375c-2.21-1.697-4.53-3.272-6.93-4.714c-3.22-1.939-6.6-3.648-10.12-5.09h-77.89
	c0.01,0.121,0.03,0.255,0.04,0.376c-2.09,0.666-4.14,1.418-6.15,2.266c-3.51,1.491-6.89,3.211-10.11,5.199
	c-2.72,1.66-5.33,3.502-7.81,5.514c-0.94,0.751-1.87,1.527-2.77,2.339c-0.29,0.473-0.57,0.945-0.85,1.43
	c-0.34,1.091-0.68,2.181-1.01,3.296c-1.26,4.217-2.42,8.58-3.48,13.088c-1.97,8.434-3.57,17.329-4.75,26.612
	c-0.02,0.182-0.05,0.364-0.07,0.557c-1.24,9.913-2,20.25-2.21,30.866c-0.06,2.169-0.08,4.338-0.08,6.532v547.061
	c0,16.699,1.33,32.756,3.77,47.698h8.48c0.22-0.109,0.44-0.218,0.65-0.327c0.44-0.206,0.87-0.448,1.3-0.679
	c0.93-0.509,1.85-1.03,2.75-1.588c0.48-0.279,0.96-0.57,1.43-0.873c2.44-1.551,4.78-3.223,7.01-5.041
	c3.2-5.853,6.64-11.076,10.29-15.596c3.23-4.011,6.62-7.465,10.14-10.313c7.4-5.962,15.39-9.222,23.72-9.222h15.29
	c8.13,0,15.94,3.114,23.2,8.822c3.52,2.763,6.91,6.144,10.15,10.083c4.26,5.175,8.24,11.306,11.88,18.25
	c3.04,2.412,6.29,4.581,9.69,6.483h9.3c2.45-14.942,3.78-30.999,3.78-47.698V171.622
	C365.737,159.637,365.057,147.967,363.747,136.818z M289.317,112.739c-6.5,0-11.77-6.386-11.77-14.251
	c0-7.877,5.27-14.251,11.77-14.251c6.49,0,11.76,6.374,11.76,14.251C301.077,106.353,295.807,112.739,289.317,112.739z"/>
<linearGradient id="SVGID_2_" gradientUnits="userSpaceOnUse" x1="126.4974" y1="420.1525" x2="254.3774" y2="420.1525">
	<stop  offset="0" style="stop-color:#00A99D"/>
	<stop  offset="0.0596" style="stop-color:#01A498"/>
	<stop  offset="0.323" style="stop-color:#059487"/>
	<stop  offset="0.5191" style="stop-color:#078E81"/>
	<stop  offset="0.6979" style="stop-color:#069386"/>
	<stop  offset="0.9215" style="stop-color:#02A296"/>
	<stop  offset="1" style="stop-color:#00A99D"/>
</linearGradient>
<path style="fill:url(#SVGID_2_);" d="M254.377,114.836v561.93c0,23.498-2.09,45.771-5.79,65.512c-0.45,2.424-0.93,4.811-1.44,7.15
	c-0.87,0.994-1.77,1.951-2.69,2.884c-1.95,1.975-4,3.829-6.16,5.562c-2.23,1.818-4.57,3.49-7.01,5.041
	c-0.47,0.303-0.95,0.594-1.43,0.873c-0.9,0.557-1.82,1.079-2.75,1.588c-0.43,0.23-0.86,0.473-1.3,0.679
	c-0.21,0.109-0.43,0.218-0.65,0.327h-68.52c-0.05-0.024-0.1-0.049-0.15-0.073c-0.27-0.133-0.54-0.267-0.81-0.412
	c-4.13-2.181-8.04-4.738-11.66-7.635c0,0-0.01,0-0.01-0.012c-3.86-3.054-7.4-6.508-10.58-10.264c-0.52-2.484-1.01-5.029-1.48-7.598
	v-0.024c-3.5-19.268-5.45-40.851-5.45-63.597v-561.93c0-2.605,0.03-5.199,0.08-7.78c0.22-10.955,0.88-21.583,1.97-31.787
	c10.2,2.993,19.48,8.083,27.33,14.76c0.08,0.073,0.16,0.133,0.24,0.206c0.96,1.478,1.92,2.872,2.9,4.193
	c1.2,1.6,2.41,3.09,3.65,4.472c2.18,2.424,4.42,4.508,6.72,6.205c0.96,0.727,1.93,1.369,2.91,1.951
	c0.36,0.206,0.71,0.412,1.06,0.594c3.66,1.975,7.45,3.017,11.33,3.017h12.79c4.26,0,8.4-1.248,12.39-3.611
	c0.41-0.242,0.81-0.497,1.22-0.763c1.45-0.945,2.88-2.048,4.29-3.284c2.09-1.83,4.11-3.975,6.08-6.398
	c0.69-0.848,1.37-1.721,2.04-2.642c1.58-2.169,3.13-4.52,4.63-7.065c2.48-2.012,5.09-3.854,7.81-5.514
	c3.22-1.987,6.6-3.708,10.11-5.199c2.01-0.848,4.06-1.6,6.15-2.266c1.16,10.604,1.88,21.704,2.1,33.132
	C254.347,109.637,254.377,112.23,254.377,114.836z"/>
<path style="fill:#00A99D;" d="M563.327,141.375c-0.24-2.278-0.5-4.532-0.81-6.762c-0.03-0.315-0.08-0.63-0.12-0.945
	c-0.03-0.254-0.07-0.509-0.11-0.763c-1.24-9.016-2.88-17.669-4.89-25.848c-0.05-0.255-0.11-0.497-0.18-0.751
	c-0.85-3.442-1.76-6.798-2.74-10.058v-0.012c-0.17-0.594-0.35-1.176-0.54-1.769c-0.6-1.963-1.23-3.89-1.88-5.78
	c-0.03-0.061-0.06-0.109-0.1-0.17c-0.86-1.394-1.76-2.763-2.72-4.096c-0.74-1.042-1.52-2.06-2.32-3.066
	c-0.42-0.533-0.86-1.066-1.3-1.575c-1.84-2.193-3.82-4.266-5.9-6.229h-103.17c-0.83,0.788-1.64,1.588-2.43,2.399
	c-1.34,1.382-2.63,2.824-3.87,4.302c-1.35,1.636-2.63,3.308-3.83,5.053c-1.28,3.502-2.48,7.15-3.61,10.919
	c-1.05,3.514-2.03,7.126-2.94,10.834c-2.05,8.422-3.73,17.329-4.98,26.612c-0.22,1.624-0.43,3.248-0.62,4.896
	c-1.34,11.306-2.04,23.146-2.04,35.313v547.061c0,15.863,1.2,31.156,3.41,45.444h10.72c0.71-0.388,1.41-0.8,2.1-1.224
	c0.48-0.279,0.96-0.57,1.43-0.873c2.44-1.551,4.78-3.223,7.01-5.041c0.78-0.63,1.54-1.26,2.29-1.927
	c2.75-4.726,5.66-9.004,8.71-12.773c2.61-3.248,5.33-6.132,8.14-8.616c7.96-7.053,16.64-10.931,25.73-10.931h15.28
	c8.05,0,15.8,3.054,23,8.653c0,0.012,0.01,0.012,0.01,0.012c2.82,2.193,5.55,4.787,8.19,7.732c4.81,5.356,9.29,11.924,13.36,19.498
	h0.01c2.53,2.012,5.2,3.841,7.99,5.49h12.02c2.23-14.288,3.43-29.569,3.43-45.444V173.876
	C565.057,162.703,564.457,151.821,563.327,141.375z M487.397,112.509c-6.5,0-11.76-6.386-11.76-14.263
	c0-7.865,5.26-14.251,11.76-14.251s11.76,6.386,11.76,14.251C499.157,106.123,493.897,112.509,487.397,112.509z"/>
<linearGradient id="SVGID_3_" gradientUnits="userSpaceOnUse" x1="325.8074" y1="419.9646" x2="453.6974" y2="419.9646">
	<stop  offset="0" style="stop-color:#00A99D"/>
	<stop  offset="0.0596" style="stop-color:#01A498"/>
	<stop  offset="0.323" style="stop-color:#059487"/>
	<stop  offset="0.5191" style="stop-color:#078E81"/>
	<stop  offset="0.6979" style="stop-color:#069386"/>
	<stop  offset="0.9215" style="stop-color:#02A296"/>
	<stop  offset="1" style="stop-color:#00A99D"/>
</linearGradient>
<path style="fill:url(#SVGID_3_);" d="M453.697,117.09v561.942c0,23.498-2.09,45.759-5.8,65.512c-0.31,1.648-0.63,3.272-0.96,4.884
	c-0.39,0.461-0.79,0.921-1.19,1.369c-0.87,0.994-1.77,1.951-2.69,2.884c-1.25,1.26-2.53,2.472-3.87,3.635
	c-0.75,0.667-1.51,1.297-2.29,1.927c-2.23,1.818-4.57,3.49-7.01,5.041c-0.47,0.303-0.95,0.594-1.43,0.873
	c-0.69,0.424-1.39,0.836-2.1,1.224h-73.7c-3.4-1.903-6.65-4.072-9.69-6.483c-0.12-0.085-0.23-0.17-0.35-0.267c0,0-0.01,0-0.01-0.012
	c-3.58-2.836-6.89-6.011-9.88-9.464c-0.52-2.46-1.01-4.969-1.47-7.513v-0.024c-0.06-0.315-0.12-0.642-0.17-0.969
	c-3.38-19.014-5.28-40.245-5.28-62.616V117.09c0-3.369,0.04-6.726,0.13-10.034c0.3-11.585,1.1-22.807,2.36-33.507h1.75
	c3.52,1.442,6.9,3.151,10.12,5.09c2.4,1.442,4.72,3.017,6.93,4.714c1,0.763,1.99,1.563,2.95,2.375c0.08,0.073,0.16,0.133,0.24,0.206
	c0.86,0.739,1.7,1.491,2.53,2.266c0.39,0.679,0.78,1.333,1.17,1.987c0.35,0.594,0.72,1.176,1.08,1.745
	c0,0.024,0.01,0.024,0.01,0.024c0.58,0.897,1.16,1.769,1.75,2.618c0,0.012,0.01,0.012,0.01,0.024c3.08,4.46,6.34,8.168,9.72,11.064
	c0.57,0.485,1.14,0.957,1.72,1.394c3.5,2.678,7.13,4.484,10.86,5.32h0.01c1.6,0.376,3.21,0.557,4.85,0.557h12.8
	c5.45,0,10.73-2.048,15.74-5.877c1.71-1.309,3.39-2.811,5.03-4.532c1.79-1.866,3.54-3.975,5.24-6.302
	c4.07-5.562,7.87-12.385,11.31-20.274c0.79-0.812,1.6-1.612,2.43-2.399h14.67c1.25,10.701,2.06,21.922,2.35,33.507
	C453.657,110.376,453.697,113.721,453.697,117.09z"/>
<path style="fill:#00A99D;" d="M759.597,133.668c-1.25-9.295-2.94-18.202-5-26.612c-3-12.337-6.82-23.619-11.29-33.507h-99.13
	c-6.21,2.933-11.94,6.702-17.05,11.149c-0.74,0.642-1.47,1.297-2.18,1.963c-0.83,0.788-1.64,1.588-2.43,2.399
	c-0.11,0.121-0.23,0.23-0.34,0.364c-0.76,2.218-1.48,4.484-2.17,6.798c-1.05,3.514-2.03,7.126-2.94,10.834
	c-2.05,8.422-3.73,17.329-4.98,26.612c-1.69,12.409-2.61,25.509-2.66,39.021v548.248c0,15.863,1.2,31.156,3.41,45.444h13.78
	c0.15-0.085,0.29-0.182,0.44-0.267c0.48-0.279,0.96-0.57,1.43-0.872c1.99-1.26,3.9-2.605,5.75-4.048
	c3.36-6.277,6.99-11.864,10.86-16.651c3.57-4.447,7.34-8.204,11.27-11.197c7.08-5.405,14.69-8.35,22.6-8.35h15.28
	c7.17,0,14.11,2.424,20.62,6.92c7.46,5.126,14.37,12.967,20.49,22.964c0.14,0.121,0.29,0.23,0.44,0.339
	c0.52,0.388,1.04,0.763,1.57,1.139c0.51,0.364,1.03,0.715,1.54,1.066c0.26,0.182,0.52,0.339,0.77,0.509
	c0.05,0.024,0.1,0.061,0.15,0.085c2.65,1.745,5.43,3.32,8.32,4.714c3.4,1.672,6.94,3.09,10.59,4.254
	c2.29-14.457,3.52-29.957,3.52-46.05V173.876C762.257,159.928,761.327,146.44,759.597,133.668z M699.897,112.969
	c-6.5,0-11.77-6.386-11.77-14.263c0-7.865,5.27-14.251,11.77-14.251c6.49,0,11.76,6.386,11.76,14.251
	C711.657,106.583,706.387,112.969,699.897,112.969z"/>
<linearGradient id="SVGID_4_" gradientUnits="userSpaceOnUse" x1="523.0175" y1="419.9646" x2="650.8975" y2="419.9646">
	<stop  offset="0" style="stop-color:#00A99D"/>
	<stop  offset="0.0596" style="stop-color:#01A498"/>
	<stop  offset="0.323" style="stop-color:#059487"/>
	<stop  offset="0.5191" style="stop-color:#078E81"/>
	<stop  offset="0.6979" style="stop-color:#069386"/>
	<stop  offset="0.9215" style="stop-color:#02A296"/>
	<stop  offset="1" style="stop-color:#00A99D"/>
</linearGradient>
<path style="fill:url(#SVGID_4_);" d="M650.897,117.09v561.942c0,23.498-2.09,45.759-5.8,65.512c-0.52,2.787-1.08,5.526-1.66,8.216
	c-0.58,0.642-1.18,1.272-1.78,1.878c-1.25,1.26-2.53,2.472-3.87,3.635c-0.75,0.667-1.51,1.297-2.29,1.927
	c-0.42,0.339-0.84,0.679-1.26,0.994c-1.85,1.442-3.76,2.787-5.75,4.048c-0.47,0.303-0.95,0.594-1.43,0.872
	c-0.15,0.085-0.29,0.182-0.44,0.267h-77.01c-2.79-1.648-5.46-3.478-7.99-5.49h-0.01c-0.01-0.012-0.02-0.024-0.04-0.036
	c-0.12-0.085-0.23-0.17-0.35-0.267c0,0-0.01,0-0.01-0.012c-3.58-2.836-6.89-6.011-9.88-9.464c-0.24-0.254-0.47-0.533-0.7-0.8
	c-0.31-0.364-0.61-0.727-0.9-1.103c-0.44-2.157-0.87-4.35-1.27-6.568v-0.024c-0.07-0.4-0.15-0.812-0.21-1.224
	c-3.36-18.953-5.23-40.088-5.23-62.361V117.09c0-3.369,0.04-6.726,0.13-10.034c0.29-11.585,1.1-22.807,2.36-33.507h14.21
	c2.08,1.963,4.06,4.035,5.9,6.229c2.1,4.447,4.32,8.519,6.65,12.155c0,0.024,0.01,0.024,0.01,0.024c0.55,0.86,1.1,1.697,1.66,2.509
	c0.45,0.654,0.91,1.285,1.37,1.903c0.68,0.921,1.36,1.806,2.05,2.654c0.01,0,0.01,0.012,0.01,0.012c2.31,2.836,4.7,5.271,7.16,7.271
	c0.32,0.267,0.63,0.509,0.95,0.751c5.01,3.829,10.28,5.877,15.73,5.877h12.79c5.4,0,10.64-2.012,15.61-5.781
	c0.04-0.036,0.09-0.061,0.13-0.097c3.58-2.727,7.01-6.374,10.27-10.834c2.48-3.393,4.86-7.247,7.12-11.525
	c5.11-4.447,10.84-8.216,17.05-11.149h4.24c1.25,10.701,2.06,21.922,2.35,33.507C650.857,110.376,650.897,113.721,650.897,117.09z"
	/>
<path style="fill:#C7B299;" d="M87.174,86.952c-2.34,7.29-7.46,12.35-13.39,12.35c-8.16,0-14.77-9.55-14.77-21.33
	c0-11.77,6.61-21.32,14.77-21.32c4.77,0,9.01,3.27,11.71,8.35h-9.61c-0.27-0.03-0.54-0.05-0.82-0.05c-5.05,0-9.14,5.53-9.14,12.35
	s4.09,12.35,9.14,12.35c2.15,0,4.13-1.01,5.69-2.7H87.174z"/>
<path style="fill:#C7B299;" d="M297.149,87.462c-2.34,7.29-7.46,12.35-13.39,12.35c-8.16,0-14.77-9.55-14.77-21.33
	c0-11.77,6.61-21.32,14.77-21.32c4.77,0,9.01,3.27,11.71,8.35h-9.61c-0.27-0.03-0.54-0.05-0.82-0.05c-5.05,0-9.14,5.53-9.14,12.35
	s4.09,12.35,9.14,12.35c2.15,0,4.13-1.01,5.69-2.7H297.149z"/>
<path style="fill:#C7B299;" d="M501.022,86.346c-2.34,7.29-7.46,12.35-13.39,12.35c-8.16,0-14.77-9.55-14.77-21.33
	c0-11.77,6.61-21.32,14.77-21.32c4.77,0,9.01,3.27,11.71,8.35h-9.61c-0.27-0.03-0.54-0.05-0.82-0.05c-5.05,0-9.14,5.53-9.14,12.35
	s4.09,12.35,9.14,12.35c2.15,0,4.13-1.01,5.69-2.7H501.022z"/>
<path style="fill:#C7B299;" d="M714.604,86.346c-2.34,7.29-7.46,12.35-13.39,12.35c-8.16,0-14.77-9.55-14.77-21.33
	c0-11.77,6.61-21.32,14.77-21.32c4.77,0,9.01,3.27,11.71,8.35h-9.61c-0.27-0.03-0.54-0.05-0.82-0.05c-5.05,0-9.14,5.53-9.14,12.35
	s4.09,12.35,9.14,12.35c2.15,0,4.13-1.01,5.69-2.7H714.604z"/>
</svg>
