<?xml version="1.0" encoding="iso-8859-1"?>
<!-- Generator: Adobe Illustrator 24.1.3, SVG Export Plug-In . SVG Version: 6.00 Build 0)  -->
<svg version="1.1" id="Layer_1" xmlns="http://www.w3.org/2000/svg" xmlns:xlink="http://www.w3.org/1999/xlink" x="0px" y="0px"
	 viewBox="0 0 800 800" style="enable-background:new 0 0 800 800;" xml:space="preserve">
<linearGradient id="SVGID_1_" gradientUnits="userSpaceOnUse" x1="400" y1="65.0244" x2="400" y2="86.9756">
	<stop  offset="0" style="stop-color:#AEAEAE"/>
	<stop  offset="1" style="stop-color:#525252"/>
</linearGradient>
<rect y="65.024" style="fill:url(#SVGID_1_);" width="800" height="21.951"/>
<path style="fill:#959595;" d="M50.307,378.788c-0.01,0.01-0.01,0.02-0.02,0.03c0,0,0-0.01-0.01-0.01
	C50.287,378.808,50.297,378.798,50.307,378.788z"/>
<path style="fill:#00A99D;" d="M51.39,149.191c-0.002-0.194-0.007-0.376-0.01-0.57c-0.072-4.035-0.161-8.01-0.272-11.925
	c-0.029-1.018-0.058-2.024-0.089-3.03c-0.221-7.235-0.503-14.239-0.842-20.965c-0.084-1.721-0.176-3.442-0.269-5.126
	c-0.01-0.17-0.019-0.351-0.029-0.521c-0.101-1.769-0.204-3.526-0.313-5.259c-0.25-4.048-0.522-7.974-0.815-11.767
	c-1.888-6.677-4.119-11.767-6.572-14.76c-0.555-0.691-1.123-1.26-1.7-1.721H19.154c-0.957,9.198-1.784,19.547-2.448,30.769
	c-0.053,0.909-0.106,1.818-0.156,2.739c-0.476,8.434-0.861,17.341-1.145,26.612c-0.067,2.157-0.127,4.338-0.178,6.544
	c-0.257,10.107-0.39,20.626-0.39,31.411v547.061c0,16.711,0.32,32.768,0.911,47.698h2.085c0.115-0.279,0.231-0.57,0.344-0.873
	c1.152-3.042,2.215-6.592,3.167-10.604c0.95-6.786,1.981-12.639,3.08-17.426c2.162-9.44,4.583-14.736,7.134-14.736h3.674
	c1.967,0,3.857,3.139,5.612,8.919c0.743,2.436,1.462,5.356,2.152,8.701v0.024c1.036,5.017,2.01,11.016,2.9,17.862
	c0,0.012,0.002,0.012,0.002,0.012c0.87,2.896,1.811,5.453,2.804,7.635c0.065,0.145,0.13,0.279,0.195,0.412
	c0.012,0.024,0.024,0.048,0.036,0.073h1.743c0.589-14.942,0.909-30.999,0.909-47.698V171.622
	C51.587,164,51.52,156.499,51.39,149.191z M30.003,113.975c-1.561,0-2.828-6.386-2.828-14.263c0-7.865,1.267-14.251,2.828-14.251
	c1.563,0,2.828,6.386,2.828,14.251C32.831,107.589,31.566,113.975,30.003,113.975z"/>
<path style="fill:#00A99D;" d="M98.736,136.818c-0.029-1.054-0.06-2.109-0.091-3.151c-0.281-9.283-0.666-18.19-1.142-26.612
	c-0.327-5.865-0.7-11.5-1.113-16.869c-0.031-0.412-0.065-0.824-0.096-1.236c-0.058-0.242-0.113-0.473-0.171-0.691
	c-0.005-0.024-0.01-0.036-0.014-0.061c-0.2-0.776-0.402-1.527-0.608-2.266c-0.019-0.073-0.038-0.133-0.058-0.206
	c-0.231-0.812-0.469-1.612-0.709-2.375c-0.531-1.697-1.089-3.272-1.666-4.714c-0.774-1.939-1.587-3.648-2.433-5.09H71.903
	c0.002,0.121,0.007,0.255,0.01,0.376c-0.503,0.666-0.996,1.418-1.479,2.266c-0.844,1.491-1.657,3.211-2.431,5.199
	c-0.654,1.66-1.282,3.502-1.878,5.514c-0.226,0.751-0.45,1.527-0.666,2.339c-0.07,0.473-0.137,0.945-0.204,1.43
	c-0.082,1.091-0.164,2.181-0.243,3.296c-0.303,4.217-0.582,8.58-0.837,13.088c-0.474,8.434-0.858,17.329-1.142,26.612
	c-0.005,0.182-0.012,0.364-0.017,0.557c-0.298,9.913-0.481,20.25-0.531,30.866c-0.014,2.169-0.019,4.338-0.019,6.532v547.061
	c0,16.699,0.32,32.756,0.907,47.698h2.039c0.053-0.109,0.106-0.218,0.156-0.327c0.106-0.206,0.209-0.448,0.313-0.679
	c0.224-0.509,0.445-1.03,0.661-1.588c0.115-0.279,0.231-0.57,0.344-0.873c0.587-1.551,1.149-3.223,1.686-5.041
	c0.769-5.853,1.597-11.076,2.474-15.596c0.777-4.011,1.592-7.465,2.438-10.313c1.779-5.962,3.701-9.222,5.704-9.222h3.677
	c1.955,0,3.833,3.114,5.579,8.822c0.846,2.763,1.662,6.144,2.441,10.083c1.024,5.175,1.981,11.306,2.857,18.25
	c0.731,2.412,1.513,4.581,2.33,6.483h2.236c0.589-14.942,0.909-30.999,0.909-47.698V171.622
	C99.215,159.637,99.051,147.967,98.736,136.818z M80.839,112.739c-1.563,0-2.83-6.386-2.83-14.251c0-7.877,1.267-14.251,2.83-14.251
	c1.561,0,2.828,6.374,2.828,14.251C83.667,106.353,82.399,112.739,80.839,112.739z"/>
<linearGradient id="SVGID_2_" gradientUnits="userSpaceOnUse" x1="41.6872" y1="420.1525" x2="72.4372" y2="420.1525">
	<stop  offset="0" style="stop-color:#00A99D"/>
	<stop  offset="0.0596" style="stop-color:#01A498"/>
	<stop  offset="0.323" style="stop-color:#059487"/>
	<stop  offset="0.5191" style="stop-color:#078E81"/>
	<stop  offset="0.6979" style="stop-color:#069386"/>
	<stop  offset="0.9215" style="stop-color:#02A296"/>
	<stop  offset="1" style="stop-color:#00A99D"/>
</linearGradient>
<path style="fill:url(#SVGID_2_);" d="M72.437,114.836v561.93c0,23.498-0.503,45.771-1.392,65.512
	c-0.108,2.424-0.224,4.811-0.346,7.15c-0.209,0.994-0.426,1.951-0.647,2.884c-0.469,1.975-0.962,3.829-1.481,5.562
	c-0.536,1.818-1.099,3.49-1.686,5.041c-0.113,0.303-0.228,0.594-0.344,0.873c-0.216,0.557-0.438,1.079-0.661,1.588
	c-0.103,0.23-0.207,0.473-0.313,0.679c-0.05,0.109-0.103,0.218-0.156,0.327H48.935c-0.012-0.024-0.024-0.049-0.036-0.073
	c-0.065-0.133-0.13-0.267-0.195-0.412c-0.993-2.181-1.933-4.738-2.804-7.635c0,0-0.002,0-0.002-0.012
	c-0.928-3.054-1.779-6.508-2.544-10.264c-0.125-2.484-0.243-5.029-0.356-7.598v-0.024c-0.842-19.268-1.311-40.851-1.311-63.597
	v-561.93c0-2.605,0.007-5.199,0.019-7.78c0.053-10.955,0.212-21.583,0.474-31.787c2.453,2.993,4.684,8.083,6.572,14.76
	c0.019,0.073,0.038,0.133,0.058,0.206c0.231,1.478,0.462,2.872,0.697,4.193c0.289,1.6,0.58,3.09,0.878,4.472
	c0.524,2.424,1.063,4.508,1.616,6.205c0.231,0.727,0.464,1.369,0.7,1.951c0.087,0.206,0.171,0.412,0.255,0.594
	c0.88,1.975,1.791,3.017,2.724,3.017h3.075c1.024,0,2.02-1.248,2.979-3.611c0.099-0.242,0.195-0.497,0.293-0.763
	c0.349-0.945,0.693-2.048,1.032-3.284c0.503-1.83,0.988-3.975,1.462-6.398c0.166-0.848,0.329-1.721,0.491-2.642
	c0.38-2.169,0.753-4.52,1.113-7.065c0.596-2.012,1.224-3.854,1.878-5.514c0.774-1.987,1.587-3.708,2.431-5.199
	c0.483-0.848,0.976-1.6,1.479-2.266c0.279,10.604,0.452,21.704,0.505,33.132C72.43,109.637,72.437,112.23,72.437,114.836z"/>
<path style="fill:#00A99D;" d="M146.727,141.375c-0.058-2.278-0.12-4.532-0.195-6.762c-0.007-0.315-0.019-0.63-0.029-0.945
	c-0.007-0.254-0.017-0.509-0.026-0.763c-0.298-9.016-0.693-17.669-1.176-25.848c-0.012-0.255-0.026-0.497-0.043-0.751
	c-0.204-3.442-0.423-6.798-0.659-10.058v-0.012c-0.041-0.594-0.084-1.176-0.13-1.769c-0.144-1.963-0.296-3.89-0.452-5.78
	c-0.007-0.061-0.014-0.109-0.024-0.17c-0.207-1.394-0.423-2.763-0.654-4.096c-0.178-1.042-0.365-2.06-0.558-3.066
	c-0.101-0.533-0.207-1.066-0.313-1.575c-0.442-2.193-0.919-4.266-1.419-6.229h-24.808c-0.2,0.788-0.394,1.588-0.584,2.399
	c-0.322,1.382-0.632,2.824-0.931,4.302c-0.325,1.636-0.632,3.308-0.921,5.053c-0.308,3.502-0.596,7.15-0.868,10.919
	c-0.252,3.514-0.488,7.126-0.707,10.834c-0.493,8.422-0.897,17.329-1.197,26.612c-0.053,1.624-0.103,3.248-0.149,4.896
	c-0.322,11.306-0.491,23.146-0.491,35.313v547.061c0,15.863,0.289,31.156,0.82,45.444h2.578c0.171-0.388,0.339-0.8,0.505-1.224
	c0.115-0.279,0.231-0.57,0.344-0.873c0.587-1.551,1.149-3.223,1.686-5.041c0.188-0.63,0.37-1.26,0.551-1.927
	c0.661-4.726,1.361-9.004,2.094-12.773c0.628-3.248,1.282-6.132,1.957-8.616c1.914-7.053,4.001-10.931,6.187-10.931h3.674
	c1.936,0,3.799,3.054,5.531,8.653c0,0.012,0.002,0.012,0.002,0.012c0.678,2.193,1.335,4.787,1.969,7.732
	c1.157,5.356,2.234,11.924,3.213,19.498h0.002c0.608,2.012,1.25,3.841,1.921,5.49h2.89c0.536-14.288,0.825-29.569,0.825-45.444
	V173.876C147.143,162.703,146.999,151.821,146.727,141.375z M128.469,112.509c-1.563,0-2.828-6.386-2.828-14.263
	c0-7.865,1.265-14.251,2.828-14.251c1.563,0,2.828,6.386,2.828,14.251C131.297,106.123,130.032,112.509,128.469,112.509z"/>
<linearGradient id="SVGID_3_" gradientUnits="userSpaceOnUse" x1="89.6133" y1="419.9646" x2="120.3657" y2="419.9646">
	<stop  offset="0" style="stop-color:#00A99D"/>
	<stop  offset="0.0596" style="stop-color:#01A498"/>
	<stop  offset="0.323" style="stop-color:#059487"/>
	<stop  offset="0.5191" style="stop-color:#078E81"/>
	<stop  offset="0.6979" style="stop-color:#069386"/>
	<stop  offset="0.9215" style="stop-color:#02A296"/>
	<stop  offset="1" style="stop-color:#00A99D"/>
</linearGradient>
<path style="fill:url(#SVGID_3_);" d="M120.366,117.09v561.942c0,23.498-0.503,45.759-1.395,65.512
	c-0.075,1.648-0.151,3.272-0.231,4.884c-0.094,0.461-0.19,0.921-0.286,1.369c-0.209,0.994-0.426,1.951-0.647,2.884
	c-0.301,1.26-0.608,2.472-0.931,3.635c-0.18,0.667-0.363,1.297-0.551,1.927c-0.536,1.818-1.099,3.49-1.686,5.041
	c-0.113,0.303-0.228,0.594-0.344,0.873c-0.166,0.424-0.334,0.836-0.505,1.224H96.07c-0.818-1.903-1.599-4.072-2.33-6.483
	c-0.029-0.085-0.055-0.17-0.084-0.267c0,0-0.002,0-0.002-0.012c-0.861-2.836-1.657-6.011-2.376-9.464
	c-0.125-2.46-0.243-4.969-0.353-7.513v-0.024c-0.014-0.315-0.029-0.642-0.041-0.969c-0.813-19.014-1.27-40.245-1.27-62.616V117.09
	c0-3.369,0.01-6.726,0.031-10.034c0.072-11.585,0.265-22.807,0.567-33.507h0.421c0.846,1.442,1.659,3.151,2.433,5.09
	c0.577,1.442,1.135,3.017,1.666,4.714c0.24,0.763,0.479,1.563,0.709,2.375c0.019,0.073,0.038,0.133,0.058,0.206
	c0.207,0.739,0.409,1.491,0.608,2.266c0.094,0.679,0.188,1.333,0.281,1.987c0.084,0.594,0.173,1.176,0.26,1.745
	c0,0.024,0.002,0.024,0.002,0.024c0.139,0.897,0.279,1.769,0.421,2.618c0,0.012,0.002,0.012,0.002,0.024
	c0.741,4.46,1.525,8.168,2.337,11.064c0.137,0.485,0.274,0.957,0.414,1.394c0.842,2.678,1.714,4.484,2.611,5.32h0.002
	c0.385,0.376,0.772,0.557,1.166,0.557h3.078c1.311,0,2.58-2.048,3.785-5.877c0.411-1.309,0.815-2.811,1.21-4.532
	c0.43-1.866,0.851-3.975,1.26-6.302c0.979-5.562,1.892-12.385,2.72-20.274c0.19-0.812,0.385-1.612,0.584-2.399h3.528
	c0.301,10.701,0.495,21.922,0.565,33.507C120.356,110.376,120.366,113.721,120.366,117.09z"/>
<path style="fill:#00A99D;" d="M193.922,133.668c-0.301-9.295-0.707-18.202-1.202-26.612c-0.721-12.337-1.64-23.619-2.715-33.507
	h-23.837c-1.493,2.933-2.871,6.702-4.1,11.149c-0.178,0.642-0.353,1.297-0.524,1.963c-0.2,0.788-0.394,1.588-0.584,2.399
	c-0.026,0.121-0.055,0.23-0.082,0.364c-0.183,2.218-0.356,4.484-0.522,6.798c-0.252,3.514-0.488,7.126-0.707,10.834
	c-0.493,8.422-0.897,17.329-1.197,26.612c-0.406,12.409-0.628,25.509-0.64,39.021v548.248c0,15.863,0.289,31.156,0.82,45.444h3.314
	c0.036-0.085,0.07-0.182,0.106-0.267c0.115-0.279,0.231-0.57,0.344-0.872c0.479-1.26,0.938-2.605,1.383-4.048
	c0.808-6.277,1.681-11.864,2.611-16.651c0.858-4.447,1.765-8.204,2.71-11.197c1.702-5.405,3.532-8.35,5.434-8.35h3.674
	c1.724,0,3.393,2.424,4.958,6.92c1.794,5.126,3.455,12.967,4.927,22.964c0.034,0.121,0.07,0.23,0.106,0.339
	c0.125,0.388,0.25,0.763,0.378,1.139c0.123,0.364,0.248,0.715,0.37,1.066c0.063,0.182,0.125,0.339,0.185,0.509
	c0.012,0.024,0.024,0.061,0.036,0.085c0.637,1.745,1.306,3.32,2.001,4.714c0.818,1.672,1.669,3.09,2.546,4.254
	c0.551-14.457,0.846-29.957,0.846-46.05V173.876C194.562,159.928,194.338,146.44,193.922,133.668z M179.567,112.969
	c-1.563,0-2.83-6.386-2.83-14.263c0-7.865,1.267-14.251,2.83-14.251c1.561,0,2.828,6.386,2.828,14.251
	C182.395,106.583,181.128,112.969,179.567,112.969z"/>
<linearGradient id="SVGID_4_" gradientUnits="userSpaceOnUse" x1="137.0344" y1="419.9646" x2="167.7844" y2="419.9646">
	<stop  offset="0" style="stop-color:#00A99D"/>
	<stop  offset="0.0596" style="stop-color:#01A498"/>
	<stop  offset="0.323" style="stop-color:#059487"/>
	<stop  offset="0.5191" style="stop-color:#078E81"/>
	<stop  offset="0.6979" style="stop-color:#069386"/>
	<stop  offset="0.9215" style="stop-color:#02A296"/>
	<stop  offset="1" style="stop-color:#00A99D"/>
</linearGradient>
<path style="fill:url(#SVGID_4_);" d="M167.784,117.09v561.942c0,23.498-0.503,45.759-1.395,65.512
	c-0.125,2.787-0.26,5.526-0.399,8.216c-0.139,0.642-0.284,1.272-0.428,1.878c-0.301,1.26-0.608,2.472-0.931,3.635
	c-0.18,0.667-0.363,1.297-0.551,1.927c-0.101,0.339-0.202,0.679-0.303,0.994c-0.445,1.442-0.904,2.787-1.383,4.048
	c-0.113,0.303-0.228,0.594-0.344,0.872c-0.036,0.085-0.07,0.182-0.106,0.267h-18.518c-0.671-1.648-1.313-3.478-1.921-5.49h-0.002
	c-0.002-0.012-0.005-0.024-0.01-0.036c-0.029-0.085-0.055-0.17-0.084-0.267c0,0-0.002,0-0.002-0.012
	c-0.861-2.836-1.657-6.011-2.376-9.464c-0.058-0.254-0.113-0.533-0.168-0.8c-0.075-0.364-0.147-0.727-0.216-1.103
	c-0.106-2.157-0.209-4.35-0.305-6.568v-0.024c-0.017-0.4-0.036-0.812-0.05-1.224c-0.808-18.953-1.258-40.088-1.258-62.361V117.09
	c0-3.369,0.01-6.726,0.031-10.034c0.07-11.585,0.265-22.807,0.567-33.507h3.417c0.5,1.963,0.976,4.035,1.419,6.229
	c0.505,4.447,1.039,8.519,1.599,12.155c0,0.024,0.002,0.024,0.002,0.024c0.132,0.86,0.264,1.697,0.399,2.509
	c0.108,0.654,0.219,1.285,0.329,1.903c0.164,0.921,0.327,1.806,0.493,2.654c0.002,0,0.002,0.012,0.002,0.012
	c0.555,2.836,1.13,5.271,1.722,7.271c0.077,0.267,0.151,0.509,0.228,0.751c1.205,3.829,2.472,5.877,3.782,5.877h3.075
	c1.298,0,2.559-2.012,3.754-5.781c0.01-0.036,0.022-0.061,0.031-0.097c0.861-2.727,1.686-6.374,2.47-10.834
	c0.596-3.393,1.169-7.247,1.712-11.525c1.229-4.447,2.607-8.216,4.1-11.149h1.02c0.301,10.701,0.495,21.922,0.565,33.507
	C167.775,110.376,167.784,113.721,167.784,117.09z"/>
<path style="fill:#C7B299;" d="M36.174,86.952c-2.34,7.29-7.46,12.35-13.39,12.35c-8.16,0-14.77-9.55-14.77-21.33
	c0-11.77,6.61-21.32,14.77-21.32c4.77,0,9.01,3.27,11.71,8.35h-9.61c-0.27-0.03-0.54-0.05-0.82-0.05c-5.05,0-9.14,5.53-9.14,12.35
	s4.09,12.35,9.14,12.35c2.15,0,4.13-1.01,5.69-2.7H36.174z"/>
<path style="fill:#C7B299;" d="M85.149,87.462c-2.34,7.29-7.46,12.35-13.39,12.35c-8.16,0-14.77-9.55-14.77-21.33
	c0-11.77,6.61-21.32,14.77-21.32c4.77,0,9.01,3.27,11.71,8.35h-9.61c-0.27-0.03-0.54-0.05-0.82-0.05c-5.05,0-9.14,5.53-9.14,12.35
	s4.09,12.35,9.14,12.35c2.15,0,4.13-1.01,5.69-2.7H85.149z"/>
<path style="fill:#C7B299;" d="M132.022,86.346c-2.34,7.29-7.46,12.35-13.39,12.35c-8.16,0-14.77-9.55-14.77-21.33
	c0-11.77,6.61-21.32,14.77-21.32c4.77,0,9.01,3.27,11.71,8.35h-9.61c-0.27-0.03-0.54-0.05-0.82-0.05c-5.05,0-9.14,5.53-9.14,12.35
	s4.09,12.35,9.14,12.35c2.15,0,4.13-1.01,5.69-2.7H132.022z"/>
<path style="fill:#C7B299;" d="M183.604,86.346c-2.34,7.29-7.46,12.35-13.39,12.35c-8.16,0-14.77-9.55-14.77-21.33
	c0-11.77,6.61-21.32,14.77-21.32c4.77,0,9.01,3.27,11.71,8.35h-9.61c-0.27-0.03-0.54-0.05-0.82-0.05c-5.05,0-9.14,5.53-9.14,12.35
	s4.09,12.35,9.14,12.35c2.15,0,4.13-1.01,5.69-2.7H183.604z"/>
</svg>
