<svg version="1.1" viewBox="0.0 0.0 1000.0 2000.0" fill="none" stroke="none" stroke-linecap="square" stroke-miterlimit="10" xmlns:xlink="http://www.w3.org/1999/xlink" xmlns="http://www.w3.org/2000/svg" preserveAspectRatio="XMaxYMax">
<clipPath id="g8b83cf23e7_0_391.0">
<path d="m0 0l1000.0 0l0 2000.0l-1000.0 0l0 -2000.0z" clip-rule="nonzero"/>
</clipPath><g clip-path="url(#g8b83cf23e7_0_391.0)">
<path fill="none" d="m0 0l1000.0 0l0 2000.0l-1000.0 0z" fill-rule="evenodd"/>
<path fill="#b0eaed" fill-opacity="0.5419" d="m228.81313 1527.8583c-15.8702545 0 -28.750137 12.879883 -28.750137 28.750122c0 15.869507 12.879883 28.749512 28.750137 28.749512c15.869568 0 28.749435 -12.880005 28.749435 -28.749512c0 -15.870239 -12.879868 -28.750122 -28.749435 -28.750122z" fill-rule="evenodd"/>
<path stroke="#b0eaed" stroke-width="1.0" stroke-linejoin="round" stroke-linecap="butt" d="m228.81313 1527.8583c-15.8702545 0 -28.750137 12.879883 -28.750137 28.750122c0 15.869507 12.879883 28.749512 28.750137 28.749512c15.869568 0 28.749435 -12.880005 28.749435 -28.749512c0 -15.870239 -12.879868 -28.750122 -28.749435 -28.750122z" fill-rule="evenodd"/>
<path fill="#b0eaed" d="m255.24054 1550.1414l0.59365845 2.0181885l0.35577393 3.3240967l-0.35577393 3.798462l-0.35647583 2.9682617l-0.94944763 3.0863037l-0.83084106 2.4924316l-1.3059235 2.6119385l-1.8995667 2.7303467l-1.6616974 1.7802734l-2.9676208 2.6118164l-2.8490143 1.7810059l-3.0868988 1.3052979l1.3059082 -0.7122803l1.8995819 -1.4245605l2.3739471 -1.7802734l1.8995819 -1.4244385l1.6616974 -1.6617432l1.0687256 -1.5438232l1.7802887 -2.3739014l1.1873322 -2.6118164l0.9494324 -2.3740234l0.712265 -2.848999l0.47506714 -2.6118164l0.35577393 -3.798462l0 -2.6118164z" fill-rule="evenodd"/>
<path stroke="#b0eaed" stroke-width="1.0" stroke-linejoin="round" stroke-linecap="butt" d="m255.24054 1550.1414l0.59365845 2.0181885l0.35577393 3.3240967l-0.35577393 3.798462l-0.35647583 2.9682617l-0.94944763 3.0863037l-0.83084106 2.4924316l-1.3059235 2.6119385l-1.8995667 2.7303467l-1.6616974 1.7802734l-2.9676208 2.6118164l-2.8490143 1.7810059l-3.0868988 1.3052979l1.3059082 -0.7122803l1.8995819 -1.4245605l2.3739471 -1.7802734l1.8995819 -1.4244385l1.6616974 -1.6617432l1.0687256 -1.5438232l1.7802887 -2.3739014l1.1873322 -2.6118164l0.9494324 -2.3740234l0.712265 -2.848999l0.47506714 -2.6118164l0.35577393 -3.798462l0 -2.6118164z" fill-rule="evenodd"/>
<path fill="#edfcfd" fill-opacity="0.8258" d="m219.93185 1530.839l-2.2622528 0.80810547l-2.1009064 1.1314697l-2.1016083 1.6156006l-2.4235992 1.9395752l-2.101593 2.4241943l-0.32269287 0.97021484l0.32269287 1.2927246l0.6467438 1.6162109l1.9395752 0.3227539l2.1009064 -0.9694824l1.1314697 -2.9090576l1.2928162 -2.9089355l1.4541626 -1.9395752l1.7782288 -1.4542236l1.6161804 -0.9700928l0.96943665 -0.80810547l-1.2928162 -0.16137695l-1.1314697 0.16137695l-0.4847107 0" fill-rule="evenodd"/>
<path stroke="#edfcfd" stroke-width="1.0" stroke-linejoin="round" stroke-linecap="butt" d="m219.93185 1530.839l-2.2622528 0.80810547l-2.1009064 1.1314697l-2.1016083 1.6156006l-2.4235992 1.9395752l-2.101593 2.4241943l-0.32269287 0.97021484l0.32269287 1.2927246l0.6467438 1.6162109l1.9395752 0.3227539l2.1009064 -0.9694824l1.1314697 -2.9090576l1.2928162 -2.9089355l1.4541626 -1.9395752l1.7782288 -1.4542236l1.6161804 -0.9700928l0.96943665 -0.80810547l-1.2928162 -0.16137695l-1.1314697 0.16137695l-0.4847107 0" fill-rule="evenodd"/>
<path fill="#edfcfd" fill-opacity="0.8258" d="m205.80597 1544.742l0 0c0 -0.8001709 0.3807373 -1.4488525 0.85040283 -1.4488525l0 0c0.22554016 0 0.4418335 0.15270996 0.60131836 0.4243164c0.15948486 0.27172852 0.24906921 0.6402588 0.24906921 1.0245361l0 0c0 0.8001709 -0.3807373 1.4488525 -0.8503876 1.4488525l0 0c-0.46966553 0 -0.85040283 -0.64868164 -0.85040283 -1.4488525z" fill-rule="evenodd"/>
<path stroke="#edfcfd" stroke-width="1.0" stroke-linejoin="round" stroke-linecap="butt" d="m205.80597 1544.742l0 0c0 -0.8001709 0.3807373 -1.4488525 0.85040283 -1.4488525l0 0c0.22554016 0 0.4418335 0.15270996 0.60131836 0.4243164c0.15948486 0.27172852 0.24906921 0.6402588 0.24906921 1.0245361l0 0c0 0.8001709 -0.3807373 1.4488525 -0.8503876 1.4488525l0 0c-0.46966553 0 -0.85040283 -0.64868164 -0.85040283 -1.4488525z" fill-rule="evenodd"/>

<animateMotion dur="12s" repeatCount="indefinite"
      path="M 0 0 50 -200 -35 -400"/>

    <animate attributeType="CSS" attributeName="opacity" 
           from="1" to="0" dur="12s" repeatCount="indefinite" />

</g>

</svg>