<svg version="1.1" viewBox="0.0 0.0 1000.0 2000.0" fill="none" stroke="none" stroke-linecap="square" stroke-miterlimit="10" xmlns:xlink="http://www.w3.org/1999/xlink" xmlns="http://www.w3.org/2000/svg" preserveAspectRatio="XMaxYMax">
<clipPath id="g8b83cf23e7_0_394.0">
<path d="m0 0l1000.0 0l0 2000.0l-1000.0 0l0 -2000.0z" clip-rule="nonzero"/>
</clipPath>
<g clip-path="url(#g8b83cf23e7_0_394.0)">
<path fill="none" d="m0 0l1000.0 0l0 2000.0l-1000.0 0z" fill-rule="evenodd"/>
<path fill="#b0eaed" fill-opacity="0.5419" d="m680.71606 1612.1969c-10.602295 0 -19.206848 8.604492 -19.206848 19.206787c0 10.601929 8.604553 19.20642 19.206848 19.20642c10.601868 0 19.20642 -8.604492 19.20642 -19.20642c0 -10.602295 -8.604553 -19.206787 -19.20642 -19.206787z" fill-rule="evenodd"/>
<path stroke="#b0eaed" stroke-width="1.0" stroke-linejoin="round" stroke-linecap="butt" d="m680.71606 1612.1969c-10.602295 0 -19.206848 8.604492 -19.206848 19.206787c0 10.601929 8.604553 19.20642 19.206848 19.20642c10.601868 0 19.20642 -8.604492 19.20642 -19.20642c0 -10.602295 -8.604553 -19.206787 -19.20642 -19.206787z" fill-rule="evenodd"/>
<path fill="#b0eaed" d="m698.36774 1627.0814l0.39660645 1.3482666l0.2376709 2.2207031l-0.2376709 2.5375977l-0.23815918 1.9830322l-0.63427734 2.0617676l-0.5550537 1.6651611l-0.8724365 1.744873l-1.269043 1.8240967l-1.1101074 1.189331l-1.982544 1.744873l-1.9033203 1.1898193l-2.0622559 0.87194824l0.8724365 -0.47583008l1.269043 -0.95166016l1.5859375 -1.189331l1.269043 -0.95166016l1.1101074 -1.1101074l0.71398926 -1.0313721l1.189331 -1.5859375l0.7932129 -1.744873l0.63427734 -1.5859375l0.47583008 -1.9033203l0.3173828 -1.744873l0.23773193 -2.5375977l0 -1.744873z" fill-rule="evenodd"/>
<path stroke="#b0eaed" stroke-width="1.0" stroke-linejoin="round" stroke-linecap="butt" d="m698.36774 1627.0814l0.39660645 1.3482666l0.2376709 2.2207031l-0.2376709 2.5375977l-0.23815918 1.9830322l-0.63427734 2.0617676l-0.5550537 1.6651611l-0.8724365 1.744873l-1.269043 1.8240967l-1.1101074 1.189331l-1.982544 1.744873l-1.9033203 1.1898193l-2.0622559 0.87194824l0.8724365 -0.47583008l1.269043 -0.95166016l1.5859375 -1.189331l1.269043 -0.95166016l1.1101074 -1.1101074l0.71398926 -1.0313721l1.189331 -1.5859375l0.7932129 -1.744873l0.63427734 -1.5859375l0.47583008 -1.9033203l0.3173828 -1.744873l0.23773193 -2.5375977l0 -1.744873z" fill-rule="evenodd"/>
<path fill="#edfcfd" fill-opacity="0.8258" d="m674.7821 1614.188l-1.5113525 0.5397949l-1.4035645 0.7558594l-1.4039917 1.0793457l-1.6190796 1.2956543l-1.4039917 1.6196289l-0.21557617 0.6480713l0.21557617 0.86376953l0.43206787 1.0797119l1.2957153 0.21557617l1.4035645 -0.6477051l0.7558594 -1.9433594l0.8637085 -1.9434814l0.97143555 -1.2956543l1.1879883 -0.9715576l1.0797119 -0.6480713l0.64764404 -0.5397949l-0.86364746 -0.107788086l-0.7559204 0.107788086l-0.3237915 0" fill-rule="evenodd"/>
<path stroke="#edfcfd" stroke-width="1.0" stroke-linejoin="round" stroke-linecap="butt" d="m674.7821 1614.188l-1.5113525 0.5397949l-1.4035645 0.7558594l-1.4039917 1.0793457l-1.6190796 1.2956543l-1.4039917 1.6196289l-0.21557617 0.6480713l0.21557617 0.86376953l0.43206787 1.0797119l1.2957153 0.21557617l1.4035645 -0.6477051l0.7558594 -1.9433594l0.8637085 -1.9434814l0.97143555 -1.2956543l1.1879883 -0.9715576l1.0797119 -0.6480713l0.64764404 -0.5397949l-0.86364746 -0.107788086l-0.7559204 0.107788086l-0.3237915 0" fill-rule="evenodd"/>
<path fill="#edfcfd" fill-opacity="0.8258" d="m665.34534 1623.4675l0 0c0 -0.5305176 0.2538452 -0.9605713 0.56695557 -0.9605713l0 0c0.15032959 0 0.29455566 0.10119629 0.4008789 0.28137207c0.10632324 0.18017578 0.16601562 0.42443848 0.16601562 0.6791992l0 0c0 0.5305176 -0.25378418 0.96069336 -0.56689453 0.96069336l0 0c-0.31311035 0 -0.56695557 -0.43017578 -0.56695557 -0.96069336z" fill-rule="evenodd"/>
<path stroke="#edfcfd" stroke-width="1.0" stroke-linejoin="round" stroke-linecap="butt" d="m665.34534 1623.4675l0 0c0 -0.5305176 0.2538452 -0.9605713 0.56695557 -0.9605713l0 0c0.15032959 0 0.29455566 0.10119629 0.4008789 0.28137207c0.10632324 0.18017578 0.16601562 0.42443848 0.16601562 0.6791992l0 0c0 0.5305176 -0.25378418 0.96069336 -0.56689453 0.96069336l0 0c-0.31311035 0 -0.56695557 -0.43017578 -0.56695557 -0.96069336z" fill-rule="evenodd"/>

<animateMotion dur="15s" repeatCount="indefinite"
      path="M 0 0 -60 -250 -35 -400 20 -500 10 -625"/>

    <animate attributeType="CSS" attributeName="opacity" 
           from="1" to="0" dur="15s" repeatCount="indefinite" />

</g>

</svg>