<svg version="1.1" viewBox="0.0 0.0 1000.0 2000.0" fill="none" stroke="none" stroke-linecap="square" stroke-miterlimit="10" xmlns:xlink="http://www.w3.org/1999/xlink" xmlns="http://www.w3.org/2000/svg">
<clipPath id="g8b83cf23e7_0_397.0">
<path d="m0 0l1000.0 0l0 2000.0l-1000.0 0l0 -2000.0z" clip-rule="nonzero"/>
</clipPath><g clip-path="url(#g8b83cf23e7_0_397.0)">
<path fill="none" d="m0 0l1000.0 0l0 2000.0l-1000.0 0z" fill-rule="evenodd"/>
<path fill="#b0eaed" fill-opacity="0.5419" d="m468.05817 1718.2205c-14.921783 0 -27.031921 12.110107 -27.031921 27.031982c0 14.9210205 12.110138 27.03125 27.031921 27.03125c14.921143 0 27.03125 -12.1102295 27.03125 -27.03125c0 -14.921875 -12.110107 -27.031982 -27.03125 -27.031982z" fill-rule="evenodd"/>
<path stroke="#b0eaed" stroke-width="1.0" stroke-linejoin="round" stroke-linecap="butt" d="m468.05817 1718.2205c-14.921783 0 -27.031921 12.110107 -27.031921 27.031982c0 14.9210205 12.110138 27.03125 27.031921 27.03125c14.921143 0 27.03125 -12.1102295 27.03125 -27.03125c0 -14.921875 -12.110107 -27.031982 -27.03125 -27.031982z" fill-rule="evenodd"/>
<path fill="#b0eaed" d="m492.91025 1739.1742l0.558197 1.8974609l0.33450317 3.1254883l-0.33450317 3.5714111l-0.33517456 2.7908936l-0.8927002 2.9018555l-0.78118896 2.3435059l-1.2278748 2.4558105l-1.7860413 2.5671387l-1.5624084 1.6739502l-2.7902527 2.4556885l-2.6787415 1.6745605l-2.9024048 1.2272949l1.2278442 -0.66967773l1.7860718 -1.3394775l2.2320557 -1.6738281l1.7860718 -1.3393555l1.5623779 -1.5623779l1.0048523 -1.4515381l1.6738892 -2.2321777l1.1163635 -2.4556885l0.8927002 -2.2320557l0.66970825 -2.678711l0.44665527 -2.4558105l0.3345337 -3.5714111l0 -2.4558105z" fill-rule="evenodd"/>
<path stroke="#b0eaed" stroke-width="1.0" stroke-linejoin="round" stroke-linecap="butt" d="m492.91025 1739.1742l0.558197 1.8974609l0.33450317 3.1254883l-0.33450317 3.5714111l-0.33517456 2.7908936l-0.8927002 2.9018555l-0.78118896 2.3435059l-1.2278748 2.4558105l-1.7860413 2.5671387l-1.5624084 1.6739502l-2.7902527 2.4556885l-2.6787415 1.6745605l-2.9024048 1.2272949l1.2278442 -0.66967773l1.7860718 -1.3394775l2.2320557 -1.6738281l1.7860718 -1.3393555l1.5623779 -1.5623779l1.0048523 -1.4515381l1.6738892 -2.2321777l1.1163635 -2.4556885l0.8927002 -2.2320557l0.66970825 -2.678711l0.44665527 -2.4558105l0.3345337 -3.5714111l0 -2.4558105z" fill-rule="evenodd"/>
<path fill="#edfcfd" fill-opacity="0.8258" d="m459.70856 1721.0234l-2.1270752 0.7597656l-1.9753418 1.0638428l-1.9760132 1.5189209l-2.2787476 1.8237305l-1.9759827 2.279419l-0.30340576 0.9121094l0.30340576 1.2155762l0.60809326 1.5195312l1.8236389 0.3034668l1.9753723 -0.911499l1.0638428 -2.7352295l1.2155457 -2.7351074l1.3672485 -1.8236084l1.6719666 -1.3673096l1.5195923 -0.9121094l0.911499 -0.7597656l-1.2155457 -0.1517334l-1.0638428 0.1517334l-0.45578003 0" fill-rule="evenodd"/>
<path stroke="#edfcfd" stroke-width="1.0" stroke-linejoin="round" stroke-linecap="butt" d="m459.70856 1721.0234l-2.1270752 0.7597656l-1.9753418 1.0638428l-1.9760132 1.5189209l-2.2787476 1.8237305l-1.9759827 2.279419l-0.30340576 0.9121094l0.30340576 1.2155762l0.60809326 1.5195312l1.8236389 0.3034668l1.9753723 -0.911499l1.0638428 -2.7352295l1.2155457 -2.7351074l1.3672485 -1.8236084l1.6719666 -1.3673096l1.5195923 -0.9121094l0.911499 -0.7597656l-1.2155457 -0.1517334l-1.0638428 0.1517334l-0.45578003 0" fill-rule="evenodd"/>
<path fill="#edfcfd" fill-opacity="0.8258" d="m446.4266 1734.0887l0 0c0 -0.7479248 0.35958862 -1.354248 0.8031311 -1.354248l0 0c0.2130127 0 0.41729736 0.14257812 0.5679321 0.39660645c0.15060425 0.25402832 0.23522949 0.59851074 0.23522949 0.9576416l0 0c0 0.7480469 -0.35958862 1.3543701 -0.8031616 1.3543701l0 0c-0.44354248 0 -0.8031311 -0.60632324 -0.8031311 -1.3543701z" fill-rule="evenodd"/>
<path stroke="#edfcfd" stroke-width="1.0" stroke-linejoin="round" stroke-linecap="butt" d="m446.4266 1734.0887l0 0c0 -0.7479248 0.35958862 -1.354248 0.8031311 -1.354248l0 0c0.2130127 0 0.41729736 0.14257812 0.5679321 0.39660645c0.15060425 0.25402832 0.23522949 0.59851074 0.23522949 0.9576416l0 0c0 0.7480469 -0.35958862 1.3543701 -0.8031616 1.3543701l0 0c-0.44354248 0 -0.8031311 -0.60632324 -0.8031311 -1.3543701z" fill-rule="evenodd"/>

<animateMotion dur="17s" repeatCount="indefinite"
      path="M 0 0 50 -200 -35 -700"/>

    <animate attributeType="CSS" attributeName="opacity" 
           from="1" to="0" dur="17s" repeatCount="indefinite" />

</g></svg>