<svg version="1.1" viewBox="0.0 0.0 1000.0 2000.0" fill="none" stroke="none" stroke-linecap="square" stroke-miterlimit="10" xmlns:xlink="http://www.w3.org/1999/xlink" xmlns="http://www.w3.org/2000/svg">
<clipPath id="g8b83cf23e7_0_403.0">
<path d="m0 0l1000.0 0l0 2000.0l-1000.0 0l0 -2000.0z" clip-rule="nonzero"/>
</clipPath>
<g clip-path="url(#g8b83cf23e7_0_403.0)">
<path fill="none" d="m0 0l1000.0 0l0 2000.0l-1000.0 0z" fill-rule="evenodd"/>
<path fill="#b0eaed" fill-opacity="0.5419" d="m587.6078 1617.0157c-8.421448 0 -15.2561035 6.8345947 -15.2561035 15.2561035c0 8.4210205 6.834656 15.255615 15.2561035 15.255615c8.421082 0 15.255676 -6.8345947 15.255676 -15.255615c0 -8.421509 -6.8345947 -15.2561035 -15.255676 -15.2561035z" fill-rule="evenodd"/>
<path stroke="#b0eaed" stroke-width="1.0" stroke-linejoin="round" stroke-linecap="butt" d="m587.6078 1617.0157c-8.421448 0 -15.2561035 6.8345947 -15.2561035 15.2561035c0 8.4210205 6.834656 15.255615 15.2561035 15.255615c8.421082 0 15.255676 -6.8345947 15.255676 -15.255615c0 -8.421509 -6.8345947 -15.2561035 -15.255676 -15.2561035z" fill-rule="evenodd"/>
<path fill="#b0eaed" d="m601.6298 1628.8394l0.31506348 1.0709229l0.18878174 1.763916l-0.18878174 2.015625l-0.18920898 1.5750732l-0.5037842 1.6376953l-0.44091797 1.3226318l-0.6929321 1.3859863l-1.0079956 1.4488525l-0.8817749 0.94470215l-1.5747681 1.3859863l-1.5117798 0.94506836l-1.6380615 0.6925049l0.69299316 -0.3779297l1.0079956 -0.7558594l1.2597046 -0.94470215l1.0079956 -0.75598145l0.8817749 -0.88171387l0.5671387 -0.81921387l0.9446411 -1.2597656l0.6300659 -1.3858643l0.5038452 -1.2597656l0.3779297 -1.5118408l0.2520752 -1.3858643l0.18878174 -2.015625l0 -1.3859863z" fill-rule="evenodd"/>
<path stroke="#b0eaed" stroke-width="1.0" stroke-linejoin="round" stroke-linecap="butt" d="m601.6298 1628.8394l0.31506348 1.0709229l0.18878174 1.763916l-0.18878174 2.015625l-0.18920898 1.5750732l-0.5037842 1.6376953l-0.44091797 1.3226318l-0.6929321 1.3859863l-1.0079956 1.4488525l-0.8817749 0.94470215l-1.5747681 1.3859863l-1.5117798 0.94506836l-1.6380615 0.6925049l0.69299316 -0.3779297l1.0079956 -0.7558594l1.2597046 -0.94470215l1.0079956 -0.75598145l0.8817749 -0.88171387l0.5671387 -0.81921387l0.9446411 -1.2597656l0.6300659 -1.3858643l0.5038452 -1.2597656l0.3779297 -1.5118408l0.2520752 -1.3858643l0.18878174 -2.015625l0 -1.3859863z" fill-rule="evenodd"/>
<path fill="#edfcfd" fill-opacity="0.8258" d="m582.89465 1618.5974l-1.2004395 0.42871094l-1.1148071 0.60046387l-1.1152344 0.8572998l-1.2860718 1.0291748l-1.1151733 1.286377l-0.17126465 0.5148926l0.17126465 0.68603516l0.34320068 0.85754395l1.0292358 0.17126465l1.1148071 -0.5144043l0.60040283 -1.5437012l0.68603516 -1.5435791l0.77160645 -1.0292969l0.9436035 -0.77160645l0.857666 -0.5147705l0.5144043 -0.428833l-0.68603516 -0.08557129l-0.60040283 0.08557129l-0.25720215 0" fill-rule="evenodd"/>
<path stroke="#edfcfd" stroke-width="1.0" stroke-linejoin="round" stroke-linecap="butt" d="m582.89465 1618.5974l-1.2004395 0.42871094l-1.1148071 0.60046387l-1.1152344 0.8572998l-1.2860718 1.0291748l-1.1151733 1.286377l-0.17126465 0.5148926l0.17126465 0.68603516l0.34320068 0.85754395l1.0292358 0.17126465l1.1148071 -0.5144043l0.60040283 -1.5437012l0.68603516 -1.5435791l0.77160645 -1.0292969l0.9436035 -0.77160645l0.857666 -0.5147705l0.5144043 -0.428833l-0.68603516 -0.08557129l-0.60040283 0.08557129l-0.25720215 0" fill-rule="evenodd"/>
<path fill="#edfcfd" fill-opacity="0.8258" d="m575.399 1625.9772l0 0c0 -0.42614746 0.20446777 -0.77160645 0.45666504 -0.77160645l0 0c0.121154785 0 0.23730469 0.08129883 0.322937 0.22607422c0.085632324 0.14465332 0.13378906 0.34094238 0.13378906 0.5455322l0 0c0 0.42626953 -0.20446777 0.7717285 -0.45672607 0.7717285l0 0c-0.25219727 0 -0.45666504 -0.34545898 -0.45666504 -0.7717285z" fill-rule="evenodd"/>
<path stroke="#edfcfd" stroke-width="1.0" stroke-linejoin="round" stroke-linecap="butt" d="m575.399 1625.9772l0 0c0 -0.42614746 0.20446777 -0.77160645 0.45666504 -0.77160645l0 0c0.121154785 0 0.23730469 0.08129883 0.322937 0.22607422c0.085632324 0.14465332 0.13378906 0.34094238 0.13378906 0.5455322l0 0c0 0.42626953 -0.20446777 0.7717285 -0.45672607 0.7717285l0 0c-0.25219727 0 -0.45666504 -0.34545898 -0.45666504 -0.7717285z" fill-rule="evenodd"/>

<animateMotion dur="20s" repeatCount="indefinite"
      path="M 0 0 50 -200 -35 -800"/>

    <animate attributeType="CSS" attributeName="opacity" 
           from="1" to="0" dur="20s" repeatCount="indefinite" />

</g>

</svg>