<svg version="1.1" viewBox="0.0 0.0 1000.0 2000.0" fill="none" stroke="none" stroke-linecap="square" stroke-miterlimit="10" xmlns:xlink="http://www.w3.org/1999/xlink" xmlns="http://www.w3.org/2000/svg">
<clipPath id="g8b83cf23e7_0_400.0">
<path d="m0 0l1000.0 0l0 2000.0l-1000.0 0l0 -2000.0z" clip-rule="nonzero"/>
</clipPath>
<g clip-path="url(#g8b83cf23e7_0_400.0)">
<path fill="none" d="m0 0l1000.0 0l0 2000.0l-1000.0 0z" fill-rule="evenodd"/>
<path fill="#b0eaed" fill-opacity="0.5419" d="m351.24017 1660.3884c-11.623291 0 -21.056458 9.433228 -21.056458 21.056519c0 11.622681 9.4331665 21.055908 21.056458 21.055908c11.622772 0 21.055939 -9.433228 21.055939 -21.055908c0 -11.623291 -9.4331665 -21.056519 -21.055939 -21.056519z" fill-rule="evenodd"/>
<path stroke="#b0eaed" stroke-width="1.0" stroke-linejoin="round" stroke-linecap="butt" d="m351.24017 1660.3884c-11.623291 0 -21.056458 9.433228 -21.056458 21.056519c0 11.622681 9.4331665 21.055908 21.056458 21.055908c11.622772 0 21.055939 -9.433228 21.055939 -21.055908c0 -11.623291 -9.4331665 -21.056519 -21.055939 -21.056519z" fill-rule="evenodd"/>
<path fill="#b0eaed" d="m370.59476 1676.7081l0.43478394 1.4780273l0.2605896 2.4345703l-0.2605896 2.7819824l-0.26107788 2.1739502l-0.69537354 2.260376l-0.60849 1.8254395l-0.9564514 1.9129639l-1.3912354 1.9997559l-1.2170105 1.303833l-2.173462 1.9128418l-2.086609 1.3044434l-2.2608337 0.9559326l0.9564514 -0.52160645l1.3912354 -1.043335l1.738678 -1.303833l1.3912354 -1.043335l1.2170105 -1.217041l0.78271484 -1.1306152l1.303894 -1.7387695l0.8695984 -1.9128418l0.695343 -1.7386475l0.5216675 -2.08667l0.3479309 -1.9128418l0.26055908 -2.7819824l0 -1.9128418z" fill-rule="evenodd"/>
<path stroke="#b0eaed" stroke-width="1.0" stroke-linejoin="round" stroke-linecap="butt" d="m370.59476 1676.7081l0.43478394 1.4780273l0.2605896 2.4345703l-0.2605896 2.7819824l-0.26107788 2.1739502l-0.69537354 2.260376l-0.60849 1.8254395l-0.9564514 1.9129639l-1.3912354 1.9997559l-1.2170105 1.303833l-2.173462 1.9128418l-2.086609 1.3044434l-2.2608337 0.9559326l0.9564514 -0.52160645l1.3912354 -1.043335l1.738678 -1.303833l1.3912354 -1.043335l1.2170105 -1.217041l0.78271484 -1.1306152l1.303894 -1.7387695l0.8695984 -1.9128418l0.695343 -1.7386475l0.5216675 -2.08667l0.3479309 -1.9128418l0.26055908 -2.7819824l0 -1.9128418z" fill-rule="evenodd"/>
<path fill="#edfcfd" fill-opacity="0.8258" d="m344.7354 1662.5715l-1.6568604 0.5917969l-1.5386963 0.82873535l-1.5391846 1.1831055l-1.7750244 1.4205322l-1.5392151 1.7756348l-0.23632812 0.7104492l0.23632812 0.9468994l0.47369385 1.1835938l1.4205017 0.2364502l1.5386963 -0.710083l0.82870483 -2.1304932l0.9468384 -2.1306152l1.065033 -1.4205322l1.3023376 -1.0649414l1.1836853 -0.7105713l0.710022 -0.5917969l-0.9468384 -0.11816406l-0.82870483 0.11816406l-0.35498047 0" fill-rule="evenodd"/>
<path stroke="#edfcfd" stroke-width="1.0" stroke-linejoin="round" stroke-linecap="butt" d="m344.7354 1662.5715l-1.6568604 0.5917969l-1.5386963 0.82873535l-1.5391846 1.1831055l-1.7750244 1.4205322l-1.5392151 1.7756348l-0.23632812 0.7104492l0.23632812 0.9468994l0.47369385 1.1835938l1.4205017 0.2364502l1.5386963 -0.710083l0.82870483 -2.1304932l0.9468384 -2.1306152l1.065033 -1.4205322l1.3023376 -1.0649414l1.1836853 -0.7105713l0.710022 -0.5917969l-0.9468384 -0.11816406l-0.82870483 0.11816406l-0.35498047 0" fill-rule="evenodd"/>
<path fill="#edfcfd" fill-opacity="0.8258" d="m334.38977 1672.7477l0 0c0 -0.5827637 0.28201294 -1.0550537 0.62991333 -1.0550537l0 0c0.16705322 0 0.3272705 0.111083984 0.44540405 0.30895996c0.118133545 0.19787598 0.18450928 0.4663086 0.18450928 0.74609375l0 0c0 0.5827637 -0.28201294 1.0551758 -0.62991333 1.0551758l0 0c-0.3479004 0 -0.62991333 -0.4724121 -0.62991333 -1.0551758z" fill-rule="evenodd"/>
<path stroke="#edfcfd" stroke-width="1.0" stroke-linejoin="round" stroke-linecap="butt" d="m334.38977 1672.7477l0 0c0 -0.5827637 0.28201294 -1.0550537 0.62991333 -1.0550537l0 0c0.16705322 0 0.3272705 0.111083984 0.44540405 0.30895996c0.118133545 0.19787598 0.18450928 0.4663086 0.18450928 0.74609375l0 0c0 0.5827637 -0.28201294 1.0551758 -0.62991333 1.0551758l0 0c-0.3479004 0 -0.62991333 -0.4724121 -0.62991333 -1.0551758z" fill-rule="evenodd"/>

<animateMotion dur="15s" repeatCount="indefinite"
      path="M 0 0 50 -200 -35 -400"/>

    <animate attributeType="CSS" attributeName="opacity" 
           from="1" to="0" dur="15s" repeatCount="indefinite" />

</g>

</svg>