<svg version="1.1" viewBox="0.0 0.0 960.0 540.0" fill="none" stroke="none" stroke-linecap="square" stroke-miterlimit="10" xmlns:xlink="http://www.w3.org/1999/xlink" xmlns="http://www.w3.org/2000/svg"><clipPath id="p.0"><path d="m0 0l960.0 0l0 540.0l-960.0 0l0 -540.0z" clip-rule="nonzero"/></clipPath><g clip-path="url(#p.0)"><path fill="#ffffff" d="m0 0l960.0 0l0 540.0l-960.0 0z" fill-rule="evenodd"/><path fill="#ffffff" d="m23.893377 -18.369526l158.96063 159.02362l-33.637787 33.637787l-158.96063 -159.02362z" fill-rule="evenodd"/><path stroke="#f3f3f3" stroke-width="3.0" stroke-linejoin="round" stroke-linecap="butt" d="m23.893377 -18.369526l158.96063 159.02362l-33.637787 33.637787l-158.96063 -159.02362z" fill-rule="evenodd"/><path fill="#ffffff" d="m149.44456 106.95593l159.0236 -158.96063l33.637817 33.637794l-159.02364 158.96063z" fill-rule="evenodd"/><path stroke="#f3f3f3" stroke-width="3.0" stroke-linejoin="round" stroke-linecap="butt" d="m149.44456 106.95593l159.0236 -158.96063l33.637817 33.637794l-159.02364 158.96063z" fill-rule="evenodd"/><path fill="#ffffff" d="m23.893377 49.123913l158.96063 159.02362l-33.637787 33.637787l-158.96063 -159.02362z" fill-rule="evenodd"/><path stroke="#f3f3f3" stroke-width="3.0" stroke-linejoin="round" stroke-linecap="butt" d="m23.893377 49.123913l158.96063 159.02362l-33.637787 33.637787l-158.96063 -159.02362z" fill-rule="evenodd"/><path fill="#ffffff" d="m23.893377 116.6226l158.96063 159.02362l-33.637787 33.637817l-158.96063 -159.02364z" fill-rule="evenodd"/><path stroke="#f3f3f3" stroke-width="3.0" stroke-linejoin="round" stroke-linecap="butt" d="m23.893377 116.6226l158.96063 159.02362l-33.637787 33.637817l-158.96063 -159.02364z" fill-rule="evenodd"/><path fill="#ffffff" d="m149.44456 173.83783l159.0236 -158.96063l33.637817 33.637794l-159.02364 158.96063z" fill-rule="evenodd"/><path stroke="#f3f3f3" stroke-width="3.0" stroke-linejoin="round" stroke-linecap="butt" d="m149.44456 173.83783l159.0236 -158.96063l33.637817 33.637794l-159.02364 158.96063z" fill-rule="evenodd"/><path fill="#ffffff" d="m149.00887 241.98743l159.0236 -158.96063l33.637817 33.637794l-159.02364 158.96062z" fill-rule="evenodd"/><path stroke="#f3f3f3" stroke-width="3.0" stroke-linejoin="round" stroke-linecap="butt" d="m149.00887 241.98743l159.0236 -158.96063l33.637817 33.637794l-159.02364 158.96062z" fill-rule="evenodd"/><path fill="#ffffff" d="m23.893377 184.43887l158.96063 159.02362l-33.637787 33.637787l-158.96063 -159.0236z" fill-rule="evenodd"/><path stroke="#f3f3f3" stroke-width="3.0" stroke-linejoin="round" stroke-linecap="butt" d="m23.893377 184.43887l158.96063 159.02362l-33.637787 33.637787l-158.96063 -159.0236z" fill-rule="evenodd"/><path fill="#ffffff" d="m149.44456 309.76434l159.0236 -158.96065l33.637817 33.637802l-159.02364 158.96063z" fill-rule="evenodd"/><path stroke="#f3f3f3" stroke-width="3.0" stroke-linejoin="round" stroke-linecap="butt" d="m149.44456 309.76434l159.0236 -158.96065l33.637817 33.637802l-159.02364 158.96063z" fill-rule="evenodd"/><path fill="#ffffff" d="m23.893377 251.93231l158.96063 159.02362l-33.637787 33.637787l-158.96063 -159.02362z" fill-rule="evenodd"/><path stroke="#f3f3f3" stroke-width="3.0" stroke-linejoin="round" stroke-linecap="butt" d="m23.893377 251.93231l158.96063 159.02362l-33.637787 33.637787l-158.96063 -159.02362z" fill-rule="evenodd"/><path fill="#ffffff" d="m23.893377 319.431l158.96063 159.02362l-33.637787 33.637787l-158.96063 -159.02362z" fill-rule="evenodd"/><path stroke="#f3f3f3" stroke-width="3.0" stroke-linejoin="round" stroke-linecap="butt" d="m23.893377 319.431l158.96063 159.02362l-33.637787 33.637787l-158.96063 -159.02362z" fill-rule="evenodd"/><path fill="#ffffff" d="m149.44456 376.6462l159.0236 -158.96062l33.637817 33.637802l-159.02364 158.96063z" fill-rule="evenodd"/><path stroke="#f3f3f3" stroke-width="3.0" stroke-linejoin="round" stroke-linecap="butt" d="m149.44456 376.6462l159.0236 -158.96062l33.637817 33.637802l-159.02364 158.96063z" fill-rule="evenodd"/><path fill="#ffffff" d="m149.00887 444.79584l159.0236 -158.96063l33.637817 33.637787l-159.02364 158.96063z" fill-rule="evenodd"/><path stroke="#f3f3f3" stroke-width="3.0" stroke-linejoin="round" stroke-linecap="butt" d="m149.00887 444.79584l159.0236 -158.96063l33.637817 33.637787l-159.02364 158.96063z" fill-rule="evenodd"/><path fill="#ffffff" d="m342.56268 -18.369526l158.9606 159.02362l-33.637787 33.637787l-158.96063 -159.02362z" fill-rule="evenodd"/><path stroke="#f3f3f3" stroke-width="3.0" stroke-linejoin="round" stroke-linecap="butt" d="m342.56268 -18.369526l158.9606 159.02362l-33.637787 33.637787l-158.96063 -159.02362z" fill-rule="evenodd"/><path fill="#ffffff" d="m468.11386 106.95593l159.02359 -158.96063l33.637817 33.637794l-159.02362 158.96063z" fill-rule="evenodd"/><path stroke="#f3f3f3" stroke-width="3.0" stroke-linejoin="round" stroke-linecap="butt" d="m468.11386 106.95593l159.02359 -158.96063l33.637817 33.637794l-159.02362 158.96063z" fill-rule="evenodd"/><path fill="#ffffff" d="m342.56268 49.123913l158.9606 159.02362l-33.637787 33.637787l-158.96063 -159.02362z" fill-rule="evenodd"/><path stroke="#f3f3f3" stroke-width="3.0" stroke-linejoin="round" stroke-linecap="butt" d="m342.56268 49.123913l158.9606 159.02362l-33.637787 33.637787l-158.96063 -159.02362z" fill-rule="evenodd"/><path fill="#ffffff" d="m342.56268 116.6226l158.9606 159.02362l-33.637787 33.637817l-158.96063 -159.02364z" fill-rule="evenodd"/><path stroke="#f3f3f3" stroke-width="3.0" stroke-linejoin="round" stroke-linecap="butt" d="m342.56268 116.6226l158.9606 159.02362l-33.637787 33.637817l-158.96063 -159.02364z" fill-rule="evenodd"/><path fill="#ffffff" d="m468.11386 173.83783l159.02359 -158.96063l33.637817 33.637794l-159.02362 158.96063z" fill-rule="evenodd"/><path stroke="#f3f3f3" stroke-width="3.0" stroke-linejoin="round" stroke-linecap="butt" d="m468.11386 173.83783l159.02359 -158.96063l33.637817 33.637794l-159.02362 158.96063z" fill-rule="evenodd"/><path fill="#ffffff" d="m467.67816 241.98743l159.02362 -158.96063l33.637817 33.637794l-159.02365 158.96062z" fill-rule="evenodd"/><path stroke="#f3f3f3" stroke-width="3.0" stroke-linejoin="round" stroke-linecap="butt" d="m467.67816 241.98743l159.02362 -158.96063l33.637817 33.637794l-159.02365 158.96062z" fill-rule="evenodd"/><path fill="#ffffff" d="m342.12567 184.43756l158.96063 159.02362l-33.637817 33.637787l-158.96063 -159.0236z" fill-rule="evenodd"/><path stroke="#f3f3f3" stroke-width="3.0" stroke-linejoin="round" stroke-linecap="butt" d="m342.12567 184.43756l158.96063 159.02362l-33.637817 33.637787l-158.96063 -159.0236z" fill-rule="evenodd"/><path fill="#ffffff" d="m467.67685 309.76303l159.02359 -158.96065l33.637817 33.637802l-159.02362 158.96063z" fill-rule="evenodd"/><path stroke="#f3f3f3" stroke-width="3.0" stroke-linejoin="round" stroke-linecap="butt" d="m467.67685 309.76303l159.02359 -158.96065l33.637817 33.637802l-159.02362 158.96063z" fill-rule="evenodd"/><path fill="#ffffff" d="m342.12567 251.931l158.96063 159.02362l-33.637817 33.637787l-158.96063 -159.02362z" fill-rule="evenodd"/><path stroke="#f3f3f3" stroke-width="3.0" stroke-linejoin="round" stroke-linecap="butt" d="m342.12567 251.931l158.96063 159.02362l-33.637817 33.637787l-158.96063 -159.02362z" fill-rule="evenodd"/><path fill="#ffffff" d="m342.12567 319.4297l158.96063 159.02362l-33.637817 33.637817l-158.96063 -159.02365z" fill-rule="evenodd"/><path stroke="#f3f3f3" stroke-width="3.0" stroke-linejoin="round" stroke-linecap="butt" d="m342.12567 319.4297l158.96063 159.02362l-33.637817 33.637817l-158.96063 -159.02365z" fill-rule="evenodd"/><path fill="#ffffff" d="m467.67685 376.6449l159.02359 -158.96062l33.637817 33.637802l-159.02362 158.96063z" fill-rule="evenodd"/><path stroke="#f3f3f3" stroke-width="3.0" stroke-linejoin="round" stroke-linecap="butt" d="m467.67685 376.6449l159.02359 -158.96062l33.637817 33.637802l-159.02362 158.96063z" fill-rule="evenodd"/><path fill="#ffffff" d="m467.24115 444.79453l159.02362 -158.96063l33.637817 33.637787l-159.02365 158.96063z" fill-rule="evenodd"/><path stroke="#f3f3f3" stroke-width="3.0" stroke-linejoin="round" stroke-linecap="butt" d="m467.24115 444.79453l159.02362 -158.96063l33.637817 33.637787l-159.02365 158.96063z" fill-rule="evenodd"/><path fill="#ffffff" d="m651.5338 -9.311783l158.96063 159.02362l-33.637817 33.637802l-158.96063 -159.02362z" fill-rule="evenodd"/><path stroke="#f3f3f3" stroke-width="3.0" stroke-linejoin="round" stroke-linecap="butt" d="m651.5338 -9.311783l158.96063 159.02362l-33.637817 33.637802l-158.96063 -159.02362z" fill-rule="evenodd"/><path fill="#ffffff" d="m777.08496 116.01368l159.02362 -158.96063l33.637817 33.637794l-159.02362 158.96063z" fill-rule="evenodd"/><path stroke="#f3f3f3" stroke-width="3.0" stroke-linejoin="round" stroke-linecap="butt" d="m777.08496 116.01368l159.02362 -158.96063l33.637817 33.637794l-159.02362 158.96063z" fill-rule="evenodd"/><path fill="#ffffff" d="m651.5338 58.181656l158.96063 159.02362l-33.637817 33.637802l-158.96063 -159.02362z" fill-rule="evenodd"/><path stroke="#f3f3f3" stroke-width="3.0" stroke-linejoin="round" stroke-linecap="butt" d="m651.5338 58.181656l158.96063 159.02362l-33.637817 33.637802l-158.96063 -159.02362z" fill-rule="evenodd"/><path fill="#ffffff" d="m651.5338 125.68034l158.96063 159.02364l-33.637817 33.637787l-158.96063 -159.02362z" fill-rule="evenodd"/><path stroke="#f3f3f3" stroke-width="3.0" stroke-linejoin="round" stroke-linecap="butt" d="m651.5338 125.68034l158.96063 159.02364l-33.637817 33.637787l-158.96063 -159.02362z" fill-rule="evenodd"/><path fill="#ffffff" d="m777.08496 182.89557l159.02362 -158.96063l33.637817 33.637794l-159.02362 158.96063z" fill-rule="evenodd"/><path stroke="#f3f3f3" stroke-width="3.0" stroke-linejoin="round" stroke-linecap="butt" d="m777.08496 182.89557l159.02362 -158.96063l33.637817 33.637794l-159.02362 158.96063z" fill-rule="evenodd"/><path fill="#ffffff" d="m776.6493 251.04517l159.02362 -158.96063l33.637817 33.637794l-159.02368 158.96062z" fill-rule="evenodd"/><path stroke="#f3f3f3" stroke-width="3.0" stroke-linejoin="round" stroke-linecap="butt" d="m776.6493 251.04517l159.02362 -158.96063l33.637817 33.637794l-159.02368 158.96062z" fill-rule="evenodd"/><path fill="#ffffff" d="m651.5338 193.49661l158.96063 159.02362l-33.637817 33.637787l-158.96063 -159.0236z" fill-rule="evenodd"/><path stroke="#f3f3f3" stroke-width="3.0" stroke-linejoin="round" stroke-linecap="butt" d="m651.5338 193.49661l158.96063 159.02362l-33.637817 33.637787l-158.96063 -159.0236z" fill-rule="evenodd"/><path fill="#ffffff" d="m777.08496 318.82208l159.02362 -158.96063l33.637817 33.637787l-159.02362 158.96063z" fill-rule="evenodd"/><path stroke="#f3f3f3" stroke-width="3.0" stroke-linejoin="round" stroke-linecap="butt" d="m777.08496 318.82208l159.02362 -158.96063l33.637817 33.637787l-159.02362 158.96063z" fill-rule="evenodd"/><path fill="#ffffff" d="m651.5338 260.99005l158.96063 159.02362l-33.637817 33.637787l-158.96063 -159.02362z" fill-rule="evenodd"/><path stroke="#f3f3f3" stroke-width="3.0" stroke-linejoin="round" stroke-linecap="butt" d="m651.5338 260.99005l158.96063 159.02362l-33.637817 33.637787l-158.96063 -159.02362z" fill-rule="evenodd"/><path fill="#ffffff" d="m651.5338 328.48874l158.96063 159.02362l-33.637817 33.637787l-158.96063 -159.02362z" fill-rule="evenodd"/><path stroke="#f3f3f3" stroke-width="3.0" stroke-linejoin="round" stroke-linecap="butt" d="m651.5338 328.48874l158.96063 159.02362l-33.637817 33.637787l-158.96063 -159.02362z" fill-rule="evenodd"/><path fill="#ffffff" d="m777.08496 385.70398l159.02362 -158.96065l33.637817 33.637802l-159.02362 158.96063z" fill-rule="evenodd"/><path stroke="#f3f3f3" stroke-width="3.0" stroke-linejoin="round" stroke-linecap="butt" d="m777.08496 385.70398l159.02362 -158.96065l33.637817 33.637802l-159.02362 158.96063z" fill-rule="evenodd"/><path fill="#ffffff" d="m776.6493 453.85358l159.02362 -158.96063l33.637817 33.637787l-159.02368 158.96063z" fill-rule="evenodd"/><path stroke="#f3f3f3" stroke-width="3.0" stroke-linejoin="round" stroke-linecap="butt" d="m776.6493 453.85358l159.02362 -158.96063l33.637817 33.637787l-159.02368 158.96063z" fill-rule="evenodd"/><path fill="#ffffff" d="m23.893377 -153.68448l158.96063 159.02362l-33.637787 33.637794l-158.96063 -159.02362z" fill-rule="evenodd"/><path stroke="#f3f3f3" stroke-width="3.0" stroke-linejoin="round" stroke-linecap="butt" d="m23.893377 -153.68448l158.96063 159.02362l-33.637787 33.637794l-158.96063 -159.02362z" fill-rule="evenodd"/><path fill="#ffffff" d="m23.893377 -86.1858l158.96063 159.02362l-33.637787 33.637794l-158.96063 -159.02362z" fill-rule="evenodd"/><path stroke="#f3f3f3" stroke-width="3.0" stroke-linejoin="round" stroke-linecap="butt" d="m23.893377 -86.1858l158.96063 159.02362l-33.637787 33.637794l-158.96063 -159.02362z" fill-rule="evenodd"/><path fill="#ffffff" d="m149.44456 -28.970575l159.0236 -158.96062l33.637817 33.637787l-159.02364 158.96063z" fill-rule="evenodd"/><path stroke="#f3f3f3" stroke-width="3.0" stroke-linejoin="round" stroke-linecap="butt" d="m149.44456 -28.970575l159.0236 -158.96062l33.637817 33.637787l-159.02364 158.96063z" fill-rule="evenodd"/><path fill="#ffffff" d="m149.00887 39.17903l159.0236 -158.96063l33.637817 33.637794l-159.02364 158.96063z" fill-rule="evenodd"/><path stroke="#f3f3f3" stroke-width="3.0" stroke-linejoin="round" stroke-linecap="butt" d="m149.00887 39.17903l159.0236 -158.96063l33.637817 33.637794l-159.02364 158.96063z" fill-rule="evenodd"/><path fill="#ffffff" d="m342.56137 -153.68448l158.9606 159.02362l-33.637787 33.637794l-158.96063 -159.02362z" fill-rule="evenodd"/><path stroke="#f3f3f3" stroke-width="3.0" stroke-linejoin="round" stroke-linecap="butt" d="m342.56137 -153.68448l158.9606 159.02362l-33.637787 33.637794l-158.96063 -159.02362z" fill-rule="evenodd"/><path fill="#ffffff" d="m342.56137 -86.1858l158.9606 159.02362l-33.637787 33.637794l-158.96063 -159.02362z" fill-rule="evenodd"/><path stroke="#f3f3f3" stroke-width="3.0" stroke-linejoin="round" stroke-linecap="butt" d="m342.56137 -86.1858l158.9606 159.02362l-33.637787 33.637794l-158.96063 -159.02362z" fill-rule="evenodd"/><path fill="#ffffff" d="m468.11255 -28.970575l159.02362 -158.96062l33.637756 33.637787l-159.02359 158.96063z" fill-rule="evenodd"/><path stroke="#f3f3f3" stroke-width="3.0" stroke-linejoin="round" stroke-linecap="butt" d="m468.11255 -28.970575l159.02362 -158.96062l33.637756 33.637787l-159.02359 158.96063z" fill-rule="evenodd"/><path fill="#ffffff" d="m467.67685 39.17903l159.02359 -158.96063l33.637817 33.637794l-159.02362 158.96063z" fill-rule="evenodd"/><path stroke="#f3f3f3" stroke-width="3.0" stroke-linejoin="round" stroke-linecap="butt" d="m467.67685 39.17903l159.02359 -158.96063l33.637817 33.637794l-159.02362 158.96063z" fill-rule="evenodd"/><path fill="#ffffff" d="m651.5338 -144.62674l158.96063 159.02362l-33.637817 33.637794l-158.96063 -159.02362z" fill-rule="evenodd"/><path stroke="#f3f3f3" stroke-width="3.0" stroke-linejoin="round" stroke-linecap="butt" d="m651.5338 -144.62674l158.96063 159.02362l-33.637817 33.637794l-158.96063 -159.02362z" fill-rule="evenodd"/><path fill="#ffffff" d="m651.5338 -77.12806l158.96063 159.02362l-33.637817 33.637794l-158.96063 -159.02362z" fill-rule="evenodd"/><path stroke="#f3f3f3" stroke-width="3.0" stroke-linejoin="round" stroke-linecap="butt" d="m651.5338 -77.12806l158.96063 159.02362l-33.637817 33.637794l-158.96063 -159.02362z" fill-rule="evenodd"/><path fill="#ffffff" d="m777.08496 -19.912832l159.02362 -158.96063l33.637817 33.637787l-159.02362 158.96063z" fill-rule="evenodd"/><path stroke="#f3f3f3" stroke-width="3.0" stroke-linejoin="round" stroke-linecap="butt" d="m777.08496 -19.912832l159.02362 -158.96063l33.637817 33.637787l-159.02362 158.96063z" fill-rule="evenodd"/><path fill="#ffffff" d="m776.6493 48.236774l159.02362 -158.96063l33.637817 33.637794l-159.02368 158.96063z" fill-rule="evenodd"/><path stroke="#f3f3f3" stroke-width="3.0" stroke-linejoin="round" stroke-linecap="butt" d="m776.6493 48.236774l159.02362 -158.96063l33.637817 33.637794l-159.02368 158.96063z" fill-rule="evenodd"/><path fill="#ffffff" d="m23.893377 387.85883l158.96063 159.02362l-33.637787 33.637817l-158.96063 -159.02365z" fill-rule="evenodd"/><path stroke="#f3f3f3" stroke-width="3.0" stroke-linejoin="round" stroke-linecap="butt" d="m23.893377 387.85883l158.96063 159.02362l-33.637787 33.637817l-158.96063 -159.02365z" fill-rule="evenodd"/><path fill="#ffffff" d="m23.893377 455.3575l158.96063 159.02359l-33.637787 33.637817l-158.96063 -159.02362z" fill-rule="evenodd"/><path stroke="#f3f3f3" stroke-width="3.0" stroke-linejoin="round" stroke-linecap="butt" d="m23.893377 455.3575l158.96063 159.02359l-33.637787 33.637817l-158.96063 -159.02362z" fill-rule="evenodd"/><path fill="#ffffff" d="m149.44456 512.57275l159.0236 -158.96066l33.637817 33.637817l-159.02364 158.9606z" fill-rule="evenodd"/><path stroke="#f3f3f3" stroke-width="3.0" stroke-linejoin="round" stroke-linecap="butt" d="m149.44456 512.57275l159.0236 -158.96066l33.637817 33.637817l-159.02364 158.9606z" fill-rule="evenodd"/><path fill="#ffffff" d="m149.00887 580.72235l159.0236 -158.96063l33.637817 33.637787l-159.02364 158.9606z" fill-rule="evenodd"/><path stroke="#f3f3f3" stroke-width="3.0" stroke-linejoin="round" stroke-linecap="butt" d="m149.00887 580.72235l159.0236 -158.96063l33.637817 33.637787l-159.02364 158.9606z" fill-rule="evenodd"/><path fill="#ffffff" d="m342.12567 387.85883l158.96063 159.02362l-33.637817 33.637817l-158.96063 -159.02365z" fill-rule="evenodd"/><path stroke="#f3f3f3" stroke-width="3.0" stroke-linejoin="round" stroke-linecap="butt" d="m342.12567 387.85883l158.96063 159.02362l-33.637817 33.637817l-158.96063 -159.02365z" fill-rule="evenodd"/><path fill="#ffffff" d="m342.12567 455.3575l158.96063 159.02359l-33.637817 33.637817l-158.96063 -159.02362z" fill-rule="evenodd"/><path stroke="#f3f3f3" stroke-width="3.0" stroke-linejoin="round" stroke-linecap="butt" d="m342.12567 455.3575l158.96063 159.02359l-33.637817 33.637817l-158.96063 -159.02362z" fill-rule="evenodd"/><path fill="#ffffff" d="m467.67685 512.57275l159.02359 -158.96066l33.637817 33.637817l-159.02362 158.9606z" fill-rule="evenodd"/><path stroke="#f3f3f3" stroke-width="3.0" stroke-linejoin="round" stroke-linecap="butt" d="m467.67685 512.57275l159.02359 -158.96066l33.637817 33.637817l-159.02362 158.9606z" fill-rule="evenodd"/><path fill="#ffffff" d="m467.24115 580.72235l159.02362 -158.96063l33.637817 33.637787l-159.02365 158.9606z" fill-rule="evenodd"/><path stroke="#f3f3f3" stroke-width="3.0" stroke-linejoin="round" stroke-linecap="butt" d="m467.24115 580.72235l159.02362 -158.96063l33.637817 33.637787l-159.02365 158.9606z" fill-rule="evenodd"/><path fill="#ffffff" d="m651.5338 329.13965l158.96063 159.02362l-33.637817 33.637817l-158.96063 -159.02362z" fill-rule="evenodd"/><path stroke="#f3f3f3" stroke-width="3.0" stroke-linejoin="round" stroke-linecap="butt" d="m651.5338 329.13965l158.96063 159.02362l-33.637817 33.637817l-158.96063 -159.02362z" fill-rule="evenodd"/><path fill="#ffffff" d="m651.5338 396.63834l158.96063 159.02365l-33.637817 33.637756l-158.96063 -159.02359z" fill-rule="evenodd"/><path stroke="#f3f3f3" stroke-width="3.0" stroke-linejoin="round" stroke-linecap="butt" d="m651.5338 396.63834l158.96063 159.02365l-33.637817 33.637756l-158.96063 -159.02359z" fill-rule="evenodd"/><path fill="#ffffff" d="m777.08496 453.85358l159.02362 -158.96063l33.637817 33.637787l-159.02362 158.96063z" fill-rule="evenodd"/><path stroke="#f3f3f3" stroke-width="3.0" stroke-linejoin="round" stroke-linecap="butt" d="m777.08496 453.85358l159.02362 -158.96063l33.637817 33.637787l-159.02362 158.96063z" fill-rule="evenodd"/><path fill="#ffffff" d="m776.6493 522.0032l159.02362 -158.96063l33.637817 33.637787l-159.02368 158.96066z" fill-rule="evenodd"/><path stroke="#f3f3f3" stroke-width="3.0" stroke-linejoin="round" stroke-linecap="butt" d="m776.6493 522.0032l159.02362 -158.96063l33.637817 33.637787l-159.02368 158.96066z" fill-rule="evenodd"/><path fill="#ffffff" d="m651.5338 463.79715l158.96063 159.02359l-33.637817 33.637817l-158.96063 -159.02362z" fill-rule="evenodd"/><path stroke="#f3f3f3" stroke-width="3.0" stroke-linejoin="round" stroke-linecap="butt" d="m651.5338 463.79715l158.96063 159.02359l-33.637817 33.637817l-158.96063 -159.02362z" fill-rule="evenodd"/><path fill="#ffffff" d="m651.5338 531.29584l158.96063 159.02362l-33.637817 33.637817l-158.96063 -159.02368z" fill-rule="evenodd"/><path stroke="#f3f3f3" stroke-width="3.0" stroke-linejoin="round" stroke-linecap="butt" d="m651.5338 531.29584l158.96063 159.02362l-33.637817 33.637817l-158.96063 -159.02368z" fill-rule="evenodd"/><path fill="#ffffff" d="m777.08496 588.51105l159.02362 -158.96063l33.637817 33.637817l-159.02362 158.96063z" fill-rule="evenodd"/><path stroke="#f3f3f3" stroke-width="3.0" stroke-linejoin="round" stroke-linecap="butt" d="m777.08496 588.51105l159.02362 -158.96063l33.637817 33.637817l-159.02362 158.96063z" fill-rule="evenodd"/><path fill="#ffffff" d="m776.6493 656.66064l159.02362 -158.9606l33.637817 33.637787l-159.02368 158.96063z" fill-rule="evenodd"/><path stroke="#f3f3f3" stroke-width="3.0" stroke-linejoin="round" stroke-linecap="butt" d="m776.6493 656.66064l159.02362 -158.9606l33.637817 33.637787l-159.02368 158.96063z" fill-rule="evenodd"/><path fill="#ffffff" d="m149.00887 647.6029l159.0236 -158.96063l33.637817 33.637817l-159.02364 158.96063z" fill-rule="evenodd"/><path stroke="#f3f3f3" stroke-width="3.0" stroke-linejoin="round" stroke-linecap="butt" d="m149.00887 647.6029l159.0236 -158.96063l33.637817 33.637817l-159.02364 158.96063z" fill-rule="evenodd"/></g></svg>