<svg version="1.1" viewBox="0.0 0.0 960.0 540.0" fill="none" stroke="none" stroke-linecap="square" stroke-miterlimit="10" xmlns:xlink="http://www.w3.org/1999/xlink" xmlns="http://www.w3.org/2000/svg"><clipPath id="p.0"><path d="m0 0l960.0 0l0 540.0l-960.0 0l0 -540.0z" clip-rule="nonzero"/></clipPath><g clip-path="url(#p.0)"><path fill="#ffffff" d="m0 0l960.0 0l0 540.0l-960.0 0z" fill-rule="evenodd"/><path fill="#ffffff" d="m15.297577 -18.369526l158.96063 159.02362l-33.637802 33.637787l-158.96063 -159.02362z" fill-rule="evenodd"/><path stroke="#d9d9d9" stroke-width="3.0" stroke-linejoin="round" stroke-linecap="butt" d="m15.297577 -18.369526l158.96063 159.02362l-33.637802 33.637787l-158.96063 -159.02362z" fill-rule="evenodd"/><path fill="#ffffff" d="m140.84875 106.95593l159.02362 -158.96063l33.637787 33.637794l-159.0236 158.96063z" fill-rule="evenodd"/><path stroke="#d9d9d9" stroke-width="3.0" stroke-linejoin="round" stroke-linecap="butt" d="m140.84875 106.95593l159.02362 -158.96063l33.637787 33.637794l-159.0236 158.96063z" fill-rule="evenodd"/><path fill="#ffffff" d="m15.297577 49.123913l158.96063 159.02362l-33.637802 33.637787l-158.96063 -159.02362z" fill-rule="evenodd"/><path stroke="#d9d9d9" stroke-width="3.0" stroke-linejoin="round" stroke-linecap="butt" d="m15.297577 49.123913l158.96063 159.02362l-33.637802 33.637787l-158.96063 -159.02362z" fill-rule="evenodd"/><path fill="#ffffff" d="m15.297577 116.6226l158.96063 159.02362l-33.637802 33.637817l-158.96063 -159.02364z" fill-rule="evenodd"/><path stroke="#d9d9d9" stroke-width="3.0" stroke-linejoin="round" stroke-linecap="butt" d="m15.297577 116.6226l158.96063 159.02362l-33.637802 33.637817l-158.96063 -159.02364z" fill-rule="evenodd"/><path fill="#ffffff" d="m140.84875 173.83783l159.02362 -158.96063l33.637787 33.637794l-159.0236 158.96063z" fill-rule="evenodd"/><path stroke="#d9d9d9" stroke-width="3.0" stroke-linejoin="round" stroke-linecap="butt" d="m140.84875 173.83783l159.02362 -158.96063l33.637787 33.637794l-159.0236 158.96063z" fill-rule="evenodd"/><path fill="#ffffff" d="m140.41306 241.98743l159.02362 -158.96063l33.637817 33.637794l-159.02364 158.96062z" fill-rule="evenodd"/><path stroke="#d9d9d9" stroke-width="3.0" stroke-linejoin="round" stroke-linecap="butt" d="m140.41306 241.98743l159.02362 -158.96063l33.637817 33.637794l-159.02364 158.96062z" fill-rule="evenodd"/><path fill="#ffffff" d="m15.297577 184.43887l158.96063 159.02362l-33.637802 33.637787l-158.96063 -159.0236z" fill-rule="evenodd"/><path stroke="#d9d9d9" stroke-width="3.0" stroke-linejoin="round" stroke-linecap="butt" d="m15.297577 184.43887l158.96063 159.02362l-33.637802 33.637787l-158.96063 -159.0236z" fill-rule="evenodd"/><path fill="#ffffff" d="m140.84875 309.76434l159.02362 -158.96065l33.637787 33.637802l-159.0236 158.96063z" fill-rule="evenodd"/><path stroke="#d9d9d9" stroke-width="3.0" stroke-linejoin="round" stroke-linecap="butt" d="m140.84875 309.76434l159.02362 -158.96065l33.637787 33.637802l-159.0236 158.96063z" fill-rule="evenodd"/><path fill="#ffffff" d="m15.297577 251.93231l158.96063 159.02362l-33.637802 33.637787l-158.96063 -159.02362z" fill-rule="evenodd"/><path stroke="#d9d9d9" stroke-width="3.0" stroke-linejoin="round" stroke-linecap="butt" d="m15.297577 251.93231l158.96063 159.02362l-33.637802 33.637787l-158.96063 -159.02362z" fill-rule="evenodd"/><path fill="#ffffff" d="m15.297577 319.431l158.96063 159.02362l-33.637802 33.637787l-158.96063 -159.02362z" fill-rule="evenodd"/><path stroke="#d9d9d9" stroke-width="3.0" stroke-linejoin="round" stroke-linecap="butt" d="m15.297577 319.431l158.96063 159.02362l-33.637802 33.637787l-158.96063 -159.02362z" fill-rule="evenodd"/><path fill="#ffffff" d="m140.84875 376.6462l159.02362 -158.96062l33.637787 33.637802l-159.0236 158.96063z" fill-rule="evenodd"/><path stroke="#d9d9d9" stroke-width="3.0" stroke-linejoin="round" stroke-linecap="butt" d="m140.84875 376.6462l159.02362 -158.96062l33.637787 33.637802l-159.0236 158.96063z" fill-rule="evenodd"/><path fill="#ffffff" d="m140.41306 444.79584l159.02362 -158.96063l33.637817 33.637787l-159.02364 158.96063z" fill-rule="evenodd"/><path stroke="#d9d9d9" stroke-width="3.0" stroke-linejoin="round" stroke-linecap="butt" d="m140.41306 444.79584l159.02362 -158.96063l33.637817 33.637787l-159.02364 158.96063z" fill-rule="evenodd"/><path fill="#ffffff" d="m333.96686 -18.369526l158.96063 159.02362l-33.637787 33.637787l-158.96063 -159.02362z" fill-rule="evenodd"/><path stroke="#d9d9d9" stroke-width="3.0" stroke-linejoin="round" stroke-linecap="butt" d="m333.96686 -18.369526l158.96063 159.02362l-33.637787 33.637787l-158.96063 -159.02362z" fill-rule="evenodd"/><path fill="#ffffff" d="m459.51804 106.95593l159.02365 -158.96063l33.637756 33.637794l-159.02359 158.96063z" fill-rule="evenodd"/><path stroke="#d9d9d9" stroke-width="3.0" stroke-linejoin="round" stroke-linecap="butt" d="m459.51804 106.95593l159.02365 -158.96063l33.637756 33.637794l-159.02359 158.96063z" fill-rule="evenodd"/><path fill="#ffffff" d="m333.96686 49.123913l158.96063 159.02362l-33.637787 33.637787l-158.96063 -159.02362z" fill-rule="evenodd"/><path stroke="#d9d9d9" stroke-width="3.0" stroke-linejoin="round" stroke-linecap="butt" d="m333.96686 49.123913l158.96063 159.02362l-33.637787 33.637787l-158.96063 -159.02362z" fill-rule="evenodd"/><path fill="#ffffff" d="m333.96686 116.6226l158.96063 159.02362l-33.637787 33.637817l-158.96063 -159.02364z" fill-rule="evenodd"/><path stroke="#d9d9d9" stroke-width="3.0" stroke-linejoin="round" stroke-linecap="butt" d="m333.96686 116.6226l158.96063 159.02362l-33.637787 33.637817l-158.96063 -159.02364z" fill-rule="evenodd"/><path fill="#ffffff" d="m459.51804 173.83783l159.02365 -158.96063l33.637756 33.637794l-159.02359 158.96063z" fill-rule="evenodd"/><path stroke="#d9d9d9" stroke-width="3.0" stroke-linejoin="round" stroke-linecap="butt" d="m459.51804 173.83783l159.02365 -158.96063l33.637756 33.637794l-159.02359 158.96063z" fill-rule="evenodd"/><path fill="#ffffff" d="m459.08237 241.98743l159.02359 -158.96063l33.637817 33.637794l-159.02362 158.96062z" fill-rule="evenodd"/><path stroke="#d9d9d9" stroke-width="3.0" stroke-linejoin="round" stroke-linecap="butt" d="m459.08237 241.98743l159.02359 -158.96063l33.637817 33.637794l-159.02362 158.96062z" fill-rule="evenodd"/><path fill="#ffffff" d="m333.52985 184.43756l158.96063 159.02362l-33.637787 33.637787l-158.96063 -159.0236z" fill-rule="evenodd"/><path stroke="#d9d9d9" stroke-width="3.0" stroke-linejoin="round" stroke-linecap="butt" d="m333.52985 184.43756l158.96063 159.02362l-33.637787 33.637787l-158.96063 -159.0236z" fill-rule="evenodd"/><path fill="#ffffff" d="m459.08105 309.76303l159.02362 -158.96065l33.637756 33.637802l-159.02359 158.96063z" fill-rule="evenodd"/><path stroke="#d9d9d9" stroke-width="3.0" stroke-linejoin="round" stroke-linecap="butt" d="m459.08105 309.76303l159.02362 -158.96065l33.637756 33.637802l-159.02359 158.96063z" fill-rule="evenodd"/><path fill="#ffffff" d="m333.52985 251.931l158.96063 159.02362l-33.637787 33.637787l-158.96063 -159.02362z" fill-rule="evenodd"/><path stroke="#d9d9d9" stroke-width="3.0" stroke-linejoin="round" stroke-linecap="butt" d="m333.52985 251.931l158.96063 159.02362l-33.637787 33.637787l-158.96063 -159.02362z" fill-rule="evenodd"/><path fill="#ffffff" d="m333.52985 319.4297l158.96063 159.02362l-33.637787 33.637817l-158.96063 -159.02365z" fill-rule="evenodd"/><path stroke="#d9d9d9" stroke-width="3.0" stroke-linejoin="round" stroke-linecap="butt" d="m333.52985 319.4297l158.96063 159.02362l-33.637787 33.637817l-158.96063 -159.02365z" fill-rule="evenodd"/><path fill="#ffffff" d="m459.08105 376.6449l159.02362 -158.96062l33.637756 33.637802l-159.02359 158.96063z" fill-rule="evenodd"/><path stroke="#d9d9d9" stroke-width="3.0" stroke-linejoin="round" stroke-linecap="butt" d="m459.08105 376.6449l159.02362 -158.96062l33.637756 33.637802l-159.02359 158.96063z" fill-rule="evenodd"/><path fill="#ffffff" d="m458.64536 444.79453l159.02359 -158.96063l33.637817 33.637787l-159.02362 158.96063z" fill-rule="evenodd"/><path stroke="#d9d9d9" stroke-width="3.0" stroke-linejoin="round" stroke-linecap="butt" d="m458.64536 444.79453l159.02359 -158.96063l33.637817 33.637787l-159.02362 158.96063z" fill-rule="evenodd"/><path fill="#ffffff" d="m642.938 -9.311783l158.96063 159.02362l-33.637817 33.637802l-158.96057 -159.02362z" fill-rule="evenodd"/><path stroke="#d9d9d9" stroke-width="3.0" stroke-linejoin="round" stroke-linecap="butt" d="m642.938 -9.311783l158.96063 159.02362l-33.637817 33.637802l-158.96057 -159.02362z" fill-rule="evenodd"/><path fill="#ffffff" d="m768.4892 116.01368l159.02362 -158.96063l33.637756 33.637794l-159.02362 158.96063z" fill-rule="evenodd"/><path stroke="#d9d9d9" stroke-width="3.0" stroke-linejoin="round" stroke-linecap="butt" d="m768.4892 116.01368l159.02362 -158.96063l33.637756 33.637794l-159.02362 158.96063z" fill-rule="evenodd"/><path fill="#ffffff" d="m642.938 58.181656l158.96063 159.02362l-33.637817 33.637802l-158.96057 -159.02362z" fill-rule="evenodd"/><path stroke="#d9d9d9" stroke-width="3.0" stroke-linejoin="round" stroke-linecap="butt" d="m642.938 58.181656l158.96063 159.02362l-33.637817 33.637802l-158.96057 -159.02362z" fill-rule="evenodd"/><path fill="#ffffff" d="m642.938 125.68034l158.96063 159.02364l-33.637817 33.637787l-158.96057 -159.02362z" fill-rule="evenodd"/><path stroke="#d9d9d9" stroke-width="3.0" stroke-linejoin="round" stroke-linecap="butt" d="m642.938 125.68034l158.96063 159.02364l-33.637817 33.637787l-158.96057 -159.02362z" fill-rule="evenodd"/><path fill="#ffffff" d="m768.4892 182.89557l159.02362 -158.96063l33.637756 33.637794l-159.02362 158.96063z" fill-rule="evenodd"/><path stroke="#d9d9d9" stroke-width="3.0" stroke-linejoin="round" stroke-linecap="butt" d="m768.4892 182.89557l159.02362 -158.96063l33.637756 33.637794l-159.02362 158.96063z" fill-rule="evenodd"/><path fill="#ffffff" d="m768.05347 251.04517l159.02362 -158.96063l33.637817 33.637794l-159.02362 158.96062z" fill-rule="evenodd"/><path stroke="#d9d9d9" stroke-width="3.0" stroke-linejoin="round" stroke-linecap="butt" d="m768.05347 251.04517l159.02362 -158.96063l33.637817 33.637794l-159.02362 158.96062z" fill-rule="evenodd"/><path fill="#ffffff" d="m642.938 193.49661l158.96063 159.02362l-33.637817 33.637787l-158.96057 -159.0236z" fill-rule="evenodd"/><path stroke="#d9d9d9" stroke-width="3.0" stroke-linejoin="round" stroke-linecap="butt" d="m642.938 193.49661l158.96063 159.02362l-33.637817 33.637787l-158.96057 -159.0236z" fill-rule="evenodd"/><path fill="#ffffff" d="m768.4892 318.82208l159.02362 -158.96063l33.637756 33.637787l-159.02362 158.96063z" fill-rule="evenodd"/><path stroke="#d9d9d9" stroke-width="3.0" stroke-linejoin="round" stroke-linecap="butt" d="m768.4892 318.82208l159.02362 -158.96063l33.637756 33.637787l-159.02362 158.96063z" fill-rule="evenodd"/><path fill="#ffffff" d="m642.938 260.99005l158.96063 159.02362l-33.637817 33.637787l-158.96057 -159.02362z" fill-rule="evenodd"/><path stroke="#d9d9d9" stroke-width="3.0" stroke-linejoin="round" stroke-linecap="butt" d="m642.938 260.99005l158.96063 159.02362l-33.637817 33.637787l-158.96057 -159.02362z" fill-rule="evenodd"/><path fill="#ffffff" d="m642.938 328.48874l158.96063 159.02362l-33.637817 33.637787l-158.96057 -159.02362z" fill-rule="evenodd"/><path stroke="#d9d9d9" stroke-width="3.0" stroke-linejoin="round" stroke-linecap="butt" d="m642.938 328.48874l158.96063 159.02362l-33.637817 33.637787l-158.96057 -159.02362z" fill-rule="evenodd"/><path fill="#ffffff" d="m768.4892 385.70398l159.02362 -158.96065l33.637756 33.637802l-159.02362 158.96063z" fill-rule="evenodd"/><path stroke="#d9d9d9" stroke-width="3.0" stroke-linejoin="round" stroke-linecap="butt" d="m768.4892 385.70398l159.02362 -158.96065l33.637756 33.637802l-159.02362 158.96063z" fill-rule="evenodd"/><path fill="#ffffff" d="m768.05347 453.85358l159.02362 -158.96063l33.637817 33.637787l-159.02362 158.96063z" fill-rule="evenodd"/><path stroke="#d9d9d9" stroke-width="3.0" stroke-linejoin="round" stroke-linecap="butt" d="m768.05347 453.85358l159.02362 -158.96063l33.637817 33.637787l-159.02362 158.96063z" fill-rule="evenodd"/><path fill="#ffffff" d="m15.297577 -153.68448l158.96063 159.02362l-33.637802 33.637794l-158.96063 -159.02362z" fill-rule="evenodd"/><path stroke="#d9d9d9" stroke-width="3.0" stroke-linejoin="round" stroke-linecap="butt" d="m15.297577 -153.68448l158.96063 159.02362l-33.637802 33.637794l-158.96063 -159.02362z" fill-rule="evenodd"/><path fill="#ffffff" d="m15.297577 -86.1858l158.96063 159.02362l-33.637802 33.637794l-158.96063 -159.02362z" fill-rule="evenodd"/><path stroke="#d9d9d9" stroke-width="3.0" stroke-linejoin="round" stroke-linecap="butt" d="m15.297577 -86.1858l158.96063 159.02362l-33.637802 33.637794l-158.96063 -159.02362z" fill-rule="evenodd"/><path fill="#ffffff" d="m140.84875 -28.970575l159.02362 -158.96062l33.637787 33.637787l-159.0236 158.96063z" fill-rule="evenodd"/><path stroke="#d9d9d9" stroke-width="3.0" stroke-linejoin="round" stroke-linecap="butt" d="m140.84875 -28.970575l159.02362 -158.96062l33.637787 33.637787l-159.0236 158.96063z" fill-rule="evenodd"/><path fill="#ffffff" d="m140.41306 39.17903l159.02362 -158.96063l33.637817 33.637794l-159.02364 158.96063z" fill-rule="evenodd"/><path stroke="#d9d9d9" stroke-width="3.0" stroke-linejoin="round" stroke-linecap="butt" d="m140.41306 39.17903l159.02362 -158.96063l33.637817 33.637794l-159.02364 158.96063z" fill-rule="evenodd"/><path fill="#ffffff" d="m333.96555 -153.68448l158.96063 159.02362l-33.637787 33.637794l-158.96063 -159.02362z" fill-rule="evenodd"/><path stroke="#d9d9d9" stroke-width="3.0" stroke-linejoin="round" stroke-linecap="butt" d="m333.96555 -153.68448l158.96063 159.02362l-33.637787 33.637794l-158.96063 -159.02362z" fill-rule="evenodd"/><path fill="#ffffff" d="m333.96555 -86.1858l158.96063 159.02362l-33.637787 33.637794l-158.96063 -159.02362z" fill-rule="evenodd"/><path stroke="#d9d9d9" stroke-width="3.0" stroke-linejoin="round" stroke-linecap="butt" d="m333.96555 -86.1858l158.96063 159.02362l-33.637787 33.637794l-158.96063 -159.02362z" fill-rule="evenodd"/><path fill="#ffffff" d="m459.51672 -28.970575l159.02362 -158.96062l33.637817 33.637787l-159.02362 158.96063z" fill-rule="evenodd"/><path stroke="#d9d9d9" stroke-width="3.0" stroke-linejoin="round" stroke-linecap="butt" d="m459.51672 -28.970575l159.02362 -158.96062l33.637817 33.637787l-159.02362 158.96063z" fill-rule="evenodd"/><path fill="#ffffff" d="m459.08105 39.17903l159.02362 -158.96063l33.637756 33.637794l-159.02359 158.96063z" fill-rule="evenodd"/><path stroke="#d9d9d9" stroke-width="3.0" stroke-linejoin="round" stroke-linecap="butt" d="m459.08105 39.17903l159.02362 -158.96063l33.637756 33.637794l-159.02359 158.96063z" fill-rule="evenodd"/><path fill="#ffffff" d="m642.938 -144.62674l158.96063 159.02362l-33.637817 33.637794l-158.96057 -159.02362z" fill-rule="evenodd"/><path stroke="#d9d9d9" stroke-width="3.0" stroke-linejoin="round" stroke-linecap="butt" d="m642.938 -144.62674l158.96063 159.02362l-33.637817 33.637794l-158.96057 -159.02362z" fill-rule="evenodd"/><path fill="#ffffff" d="m642.938 -77.12806l158.96063 159.02362l-33.637817 33.637794l-158.96057 -159.02362z" fill-rule="evenodd"/><path stroke="#d9d9d9" stroke-width="3.0" stroke-linejoin="round" stroke-linecap="butt" d="m642.938 -77.12806l158.96063 159.02362l-33.637817 33.637794l-158.96057 -159.02362z" fill-rule="evenodd"/><path fill="#ffffff" d="m768.4892 -19.912832l159.02362 -158.96063l33.637756 33.637787l-159.02362 158.96063z" fill-rule="evenodd"/><path stroke="#d9d9d9" stroke-width="3.0" stroke-linejoin="round" stroke-linecap="butt" d="m768.4892 -19.912832l159.02362 -158.96063l33.637756 33.637787l-159.02362 158.96063z" fill-rule="evenodd"/><path fill="#ffffff" d="m768.05347 48.236774l159.02362 -158.96063l33.637817 33.637794l-159.02362 158.96063z" fill-rule="evenodd"/><path stroke="#d9d9d9" stroke-width="3.0" stroke-linejoin="round" stroke-linecap="butt" d="m768.05347 48.236774l159.02362 -158.96063l33.637817 33.637794l-159.02362 158.96063z" fill-rule="evenodd"/><path fill="#ffffff" d="m15.297577 387.85883l158.96063 159.02362l-33.637802 33.637817l-158.96063 -159.02365z" fill-rule="evenodd"/><path stroke="#d9d9d9" stroke-width="3.0" stroke-linejoin="round" stroke-linecap="butt" d="m15.297577 387.85883l158.96063 159.02362l-33.637802 33.637817l-158.96063 -159.02365z" fill-rule="evenodd"/><path fill="#ffffff" d="m15.297577 455.3575l158.96063 159.02359l-33.637802 33.637817l-158.96063 -159.02362z" fill-rule="evenodd"/><path stroke="#d9d9d9" stroke-width="3.0" stroke-linejoin="round" stroke-linecap="butt" d="m15.297577 455.3575l158.96063 159.02359l-33.637802 33.637817l-158.96063 -159.02362z" fill-rule="evenodd"/><path fill="#ffffff" d="m140.84875 512.57275l159.02362 -158.96066l33.637787 33.637817l-159.0236 158.9606z" fill-rule="evenodd"/><path stroke="#d9d9d9" stroke-width="3.0" stroke-linejoin="round" stroke-linecap="butt" d="m140.84875 512.57275l159.02362 -158.96066l33.637787 33.637817l-159.0236 158.9606z" fill-rule="evenodd"/><path fill="#ffffff" d="m140.41306 580.72235l159.02362 -158.96063l33.637817 33.637787l-159.02364 158.9606z" fill-rule="evenodd"/><path stroke="#d9d9d9" stroke-width="3.0" stroke-linejoin="round" stroke-linecap="butt" d="m140.41306 580.72235l159.02362 -158.96063l33.637817 33.637787l-159.02364 158.9606z" fill-rule="evenodd"/><path fill="#ffffff" d="m333.52985 387.85883l158.96063 159.02362l-33.637787 33.637817l-158.96063 -159.02365z" fill-rule="evenodd"/><path stroke="#d9d9d9" stroke-width="3.0" stroke-linejoin="round" stroke-linecap="butt" d="m333.52985 387.85883l158.96063 159.02362l-33.637787 33.637817l-158.96063 -159.02365z" fill-rule="evenodd"/><path fill="#ffffff" d="m333.52985 455.3575l158.96063 159.02359l-33.637787 33.637817l-158.96063 -159.02362z" fill-rule="evenodd"/><path stroke="#d9d9d9" stroke-width="3.0" stroke-linejoin="round" stroke-linecap="butt" d="m333.52985 455.3575l158.96063 159.02359l-33.637787 33.637817l-158.96063 -159.02362z" fill-rule="evenodd"/><path fill="#ffffff" d="m459.08105 512.57275l159.02362 -158.96066l33.637756 33.637817l-159.02359 158.9606z" fill-rule="evenodd"/><path stroke="#d9d9d9" stroke-width="3.0" stroke-linejoin="round" stroke-linecap="butt" d="m459.08105 512.57275l159.02362 -158.96066l33.637756 33.637817l-159.02359 158.9606z" fill-rule="evenodd"/><path fill="#ffffff" d="m458.64536 580.72235l159.02359 -158.96063l33.637817 33.637787l-159.02362 158.9606z" fill-rule="evenodd"/><path stroke="#d9d9d9" stroke-width="3.0" stroke-linejoin="round" stroke-linecap="butt" d="m458.64536 580.72235l159.02359 -158.96063l33.637817 33.637787l-159.02362 158.9606z" fill-rule="evenodd"/><path fill="#ffffff" d="m642.938 329.13965l158.96063 159.02362l-33.637817 33.637817l-158.96057 -159.02362z" fill-rule="evenodd"/><path stroke="#d9d9d9" stroke-width="3.0" stroke-linejoin="round" stroke-linecap="butt" d="m642.938 329.13965l158.96063 159.02362l-33.637817 33.637817l-158.96057 -159.02362z" fill-rule="evenodd"/><path fill="#ffffff" d="m642.938 396.63834l158.96063 159.02365l-33.637817 33.637756l-158.96057 -159.02359z" fill-rule="evenodd"/><path stroke="#d9d9d9" stroke-width="3.0" stroke-linejoin="round" stroke-linecap="butt" d="m642.938 396.63834l158.96063 159.02365l-33.637817 33.637756l-158.96057 -159.02359z" fill-rule="evenodd"/><path fill="#ffffff" d="m768.4892 453.85358l159.02362 -158.96063l33.637756 33.637787l-159.02362 158.96063z" fill-rule="evenodd"/><path stroke="#d9d9d9" stroke-width="3.0" stroke-linejoin="round" stroke-linecap="butt" d="m768.4892 453.85358l159.02362 -158.96063l33.637756 33.637787l-159.02362 158.96063z" fill-rule="evenodd"/><path fill="#ffffff" d="m768.05347 522.0032l159.02362 -158.96063l33.637817 33.637787l-159.02362 158.96066z" fill-rule="evenodd"/><path stroke="#d9d9d9" stroke-width="3.0" stroke-linejoin="round" stroke-linecap="butt" d="m768.05347 522.0032l159.02362 -158.96063l33.637817 33.637787l-159.02362 158.96066z" fill-rule="evenodd"/><path fill="#ffffff" d="m642.938 463.79715l158.96063 159.02359l-33.637817 33.637817l-158.96057 -159.02362z" fill-rule="evenodd"/><path stroke="#d9d9d9" stroke-width="3.0" stroke-linejoin="round" stroke-linecap="butt" d="m642.938 463.79715l158.96063 159.02359l-33.637817 33.637817l-158.96057 -159.02362z" fill-rule="evenodd"/><path fill="#ffffff" d="m642.938 531.29584l158.96063 159.02362l-33.637817 33.637817l-158.96057 -159.02368z" fill-rule="evenodd"/><path stroke="#d9d9d9" stroke-width="3.0" stroke-linejoin="round" stroke-linecap="butt" d="m642.938 531.29584l158.96063 159.02362l-33.637817 33.637817l-158.96057 -159.02368z" fill-rule="evenodd"/><path fill="#ffffff" d="m768.4892 588.51105l159.02362 -158.96063l33.637756 33.637817l-159.02362 158.96063z" fill-rule="evenodd"/><path stroke="#d9d9d9" stroke-width="3.0" stroke-linejoin="round" stroke-linecap="butt" d="m768.4892 588.51105l159.02362 -158.96063l33.637756 33.637817l-159.02362 158.96063z" fill-rule="evenodd"/><path fill="#ffffff" d="m768.05347 656.66064l159.02362 -158.9606l33.637817 33.637787l-159.02362 158.96063z" fill-rule="evenodd"/><path stroke="#d9d9d9" stroke-width="3.0" stroke-linejoin="round" stroke-linecap="butt" d="m768.05347 656.66064l159.02362 -158.9606l33.637817 33.637787l-159.02362 158.96063z" fill-rule="evenodd"/><path fill="#ffffff" d="m140.41306 647.6029l159.02362 -158.96063l33.637817 33.637817l-159.02364 158.96063z" fill-rule="evenodd"/><path stroke="#d9d9d9" stroke-width="3.0" stroke-linejoin="round" stroke-linecap="butt" d="m140.41306 647.6029l159.02362 -158.96063l33.637817 33.637817l-159.02364 158.96063z" fill-rule="evenodd"/></g></svg>